<svg width="85" height="23" viewBox="0 0 85 23" fill="#060048" xmlns="http://www.w3.org/2000/svg">
<path d="M15.895 15.893C15.988 15.304 16.05 14.777 16.05 14.25C16.05 11.925 15.306 10.003 13.818 8.422C12.361 6.841 10.47 6.066 8.207 6.066C5.82 6.066 3.836 6.841 2.317 8.422C0.798 9.972 0.023 11.925 0.023 14.25C0.023 16.606 0.798 18.559 2.348 20.109C3.898 21.659 5.944 22.434 8.517 22.434C11.493 22.434 13.756 21.318 15.275 19.117L12.051 17.257C11.276 18.28 10.098 18.807 8.579 18.807C6.192 18.807 4.735 17.846 4.208 15.893H15.895ZM4.146 12.793C4.611 10.809 6.068 9.662 8.207 9.662C10.036 9.662 11.586 10.685 12.051 12.793H4.146ZM30.4696 8.329C29.2916 6.81 27.6176 6.066 25.4476 6.066C23.3706 6.066 21.5726 6.872 20.0846 8.453C18.6276 10.034 17.8836 11.956 17.8836 14.25C17.8836 16.544 18.6276 18.497 20.0846 20.078C21.5726 21.659 23.3706 22.434 25.4476 22.434C27.6176 22.434 29.2916 21.69 30.4696 20.171V22H34.4686V0.299999H30.4696V8.329ZM23.0916 17.412C22.2856 16.575 21.8826 15.521 21.8826 14.25C21.8826 12.979 22.2856 11.925 23.0916 11.119C23.9286 10.282 24.9516 9.879 26.1916 9.879C27.4316 9.879 28.4546 10.282 29.2606 11.119C30.0666 11.925 30.4696 12.979 30.4696 14.25C30.4696 15.521 30.0666 16.575 29.2606 17.412C28.4546 18.218 27.4316 18.621 26.1916 18.621C24.9516 18.621 23.9286 18.218 23.0916 17.412ZM51.3319 20.078C52.9129 18.497 53.7189 16.544 53.7189 14.25C53.7189 11.956 52.9129 10.034 51.3319 8.453C49.7509 6.872 47.7979 6.066 45.5039 6.066C43.2099 6.066 41.2569 6.872 39.6759 8.453C38.0949 10.034 37.3199 11.956 37.3199 14.25C37.3199 16.544 38.0949 18.497 39.6759 20.078C41.2569 21.659 43.2099 22.434 45.5039 22.434C47.7979 22.434 49.7509 21.659 51.3319 20.078ZM42.4969 17.319C41.7219 16.513 41.3189 15.49 41.3189 14.25C41.3189 13.01 41.7219 11.987 42.4969 11.181C43.3029 10.375 44.2949 9.972 45.5039 9.972C46.7129 9.972 47.7049 10.375 48.5109 11.181C49.3169 11.987 49.7199 13.01 49.7199 14.25C49.7199 15.49 49.3169 16.513 48.5109 17.319C47.7049 18.125 46.7129 18.528 45.5039 18.528C44.2949 18.528 43.3029 18.125 42.4969 17.319ZM67.0024 9.166V6.5H55.3774V10.251H61.6084L55.0674 19.334V22H67.3124V18.249H60.4304L67.0024 9.166ZM82.4832 20.078C84.0642 18.497 84.8702 16.544 84.8702 14.25C84.8702 11.956 84.0642 10.034 82.4832 8.453C80.9022 6.872 78.9492 6.066 76.6552 6.066C74.3612 6.066 72.4082 6.872 70.8272 8.453C69.2462 10.034 68.4712 11.956 68.4712 14.25C68.4712 16.544 69.2462 18.497 70.8272 20.078C72.4082 21.659 74.3612 22.434 76.6552 22.434C78.9492 22.434 80.9022 21.659 82.4832 20.078ZM73.6482 17.319C72.8732 16.513 72.4702 15.49 72.4702 14.25C72.4702 13.01 72.8732 11.987 73.6482 11.181C74.4542 10.375 75.4462 9.972 76.6552 9.972C77.8642 9.972 78.8562 10.375 79.6622 11.181C80.4682 11.987 80.8712 13.01 80.8712 14.25C80.8712 15.49 80.4682 16.513 79.6622 17.319C78.8562 18.125 77.8642 18.528 76.6552 18.528C75.4462 18.528 74.4542 18.125 73.6482 17.319Z" />
</svg>
