<svg xmlns="http://www.w3.org/2000/svg" viewBox="0 0 53.72 16.52"><path fill="#1d1e40" d="M10.05 9.87c.06-.37.1-.71.1-1.04 0-1.47-.47-2.69-1.41-3.69-.92-1-2.12-1.49-3.55-1.49-1.51 0-2.77.49-3.73 1.49C.49 6.12 0 7.36 0 8.83c0 1.49.49 2.73 1.47 3.71s2.28 1.47 3.91 1.47c1.88 0 3.32-.71 4.28-2.1l-2.04-1.18c-.49.65-1.24.98-2.2.98-1.51 0-2.43-.61-2.77-1.84h7.4zM2.61 7.91c.29-1.26 1.22-1.98 2.57-1.98 1.16 0 2.14.65 2.43 1.98h-5zM19.28 5.08c-.75-.96-1.81-1.43-3.18-1.43-1.31 0-2.45.51-3.4 1.51-.92 1-1.39 2.22-1.39 3.67s.47 2.69 1.39 3.69c.94 1 2.08 1.49 3.4 1.49 1.37 0 2.43-.47 3.18-1.43v1.16h2.53V0h-2.53v5.08zm-4.68 5.75c-.51-.53-.77-1.2-.77-2s.26-1.47.77-1.98c.53-.53 1.18-.79 1.96-.79.79 0 1.43.26 1.94.79.51.51.77 1.18.77 1.98s-.26 1.47-.77 2c-.51.51-1.16.77-1.94.77s-1.43-.26-1.96-.77zM32.48 12.52c1-1 1.51-2.24 1.51-3.69s-.51-2.67-1.51-3.67-2.24-1.51-3.69-1.51c-1.45 0-2.69.51-3.69 1.51s-1.49 2.22-1.49 3.67.49 2.69 1.49 3.69 2.24 1.49 3.69 1.49c1.46 0 2.69-.49 3.69-1.49zm-5.59-1.75c-.49-.51-.75-1.16-.75-1.94s.26-1.43.75-1.94c.51-.51 1.14-.77 1.9-.77.77 0 1.39.26 1.9.77s.77 1.16.77 1.94-.26 1.43-.77 1.94-1.14.77-1.9.77-1.39-.26-1.9-.77zM42.4 5.61V3.93h-7.36V6.3h3.94l-4.14 5.75v1.69h7.75v-2.37h-4.36l4.17-5.76zM52.21 12.52c1-1 1.51-2.24 1.51-3.69s-.51-2.67-1.51-3.67-2.24-1.51-3.69-1.51c-1.45 0-2.69.51-3.69 1.51s-1.49 2.22-1.49 3.67.49 2.69 1.49 3.69 2.24 1.49 3.69 1.49c1.45 0 2.68-.49 3.69-1.49zm-5.6-1.75c-.49-.51-.75-1.16-.75-1.94s.26-1.43.75-1.94c.51-.51 1.14-.77 1.9-.77.77 0 1.39.26 1.9.77s.77 1.16.77 1.94-.26 1.43-.77 1.94-1.14.77-1.9.77-1.39-.26-1.9-.77z"/></svg>