<svg viewBox="0 0 185 23" fill="none" xmlns="http://www.w3.org/2000/svg">
<path d="M184.828 7.7735C183.837 8.3998 182.576 8.79088 181.621 9.45119C180.219 10.4204 179.817 12.2738 178.961 13.6766C178.699 13.909 178.35 13.8891 178.144 13.5972C177.649 12.7017 177.266 11.6928 176.762 10.8086C175.793 9.11395 173.969 8.72004 172.384 7.80751C172.097 7.56096 172.094 7.18971 172.409 6.96867C173.378 6.28285 174.876 5.94845 175.816 5.14078C176.984 4.13757 177.381 2.46555 178.17 1.17611C178.445 0.858709 178.803 0.892716 179.037 1.23562C179.904 2.50522 180.121 4.20275 181.449 5.22296C182.387 5.94278 183.814 6.28852 184.715 6.94316C185.016 7.16421 185.059 7.47877 184.828 7.77634V7.7735Z" fill="#00D4FF"/>
<path d="M165.033 3.63898C164.949 3.48878 164.955 3.38676 165.084 3.27624C165.346 3.05236 165.982 2.85682 166.309 2.64711C167.077 2.15967 167.046 1.49086 167.497 0.86173C167.587 0.737037 167.663 0.666188 167.832 0.717199C167.953 0.75404 168.544 2.13133 168.826 2.40906C169.254 2.83131 169.98 2.95884 170.385 3.28191C170.54 3.40377 170.512 3.5483 170.368 3.66732C169.96 4.00456 169.231 4.11508 168.792 4.56284C168.353 5.01061 168.26 5.66808 167.939 6.1045C167.821 6.26604 167.688 6.29721 167.539 6.14701C167.226 5.6029 167.032 4.87174 166.548 4.45515C166.14 4.10375 165.504 3.90821 165.036 3.63898H165.033Z" fill="#00D4FF"/>
<path d="M170.439 10.154C170.534 10.1398 170.616 10.2022 170.675 10.273C171.01 10.6839 171.12 11.4179 171.565 11.86C172.01 12.3021 172.725 12.407 173.122 12.7357C173.265 12.8547 173.293 12.9993 173.139 13.1211C172.911 13.3025 172.356 13.4895 172.069 13.6567C171.748 13.8466 171.509 14.0138 171.306 14.3397C171.179 14.5438 170.723 15.6178 170.616 15.6717C170.54 15.7085 170.444 15.7057 170.368 15.6717C170.219 15.6037 169.8 14.5806 169.662 14.3567C169.177 13.5831 168.513 13.6142 167.888 13.1608C167.697 13.0219 167.666 12.8916 167.863 12.7357C168.336 12.3673 168.997 12.3021 169.465 11.7807C169.856 11.3443 169.98 10.6499 170.292 10.2532C170.332 10.205 170.377 10.1597 170.439 10.1512V10.154Z" fill="#00D4FF"/>
<path d="M82.4602 19.778C84.0412 18.197 84.8472 16.244 84.8472 13.95C84.8472 11.656 84.0412 9.734 82.4602 8.153C80.8792 6.572 78.9262 5.766 76.6322 5.766C74.3382 5.766 72.3852 6.572 70.8042 8.153C69.2232 9.734 68.4482 11.656 68.4482 13.95C68.4482 16.244 69.2232 18.197 70.8042 19.778C72.3852 21.359 74.3382 22.134 76.6322 22.134C78.9262 22.134 80.8792 21.359 82.4602 19.778ZM73.6252 17.019C72.8502 16.213 72.4472 15.19 72.4472 13.95C72.4472 12.71 72.8502 11.687 73.6252 10.881C74.4312 10.075 75.4232 9.672 76.6322 9.672C77.8412 9.672 78.8332 10.075 79.6392 10.881C80.4452 11.687 80.8482 12.71 80.8482 13.95C80.8482 15.19 80.4452 16.213 79.6392 17.019C78.8332 17.825 77.8412 18.228 76.6322 18.228C75.4232 18.228 74.4312 17.825 73.6252 17.019Z" fill="#060048"/>
<path d="M66.9794 8.866V6.2H55.3544V9.951H61.5854L55.0444 19.034V21.7H67.2894V17.949H60.4074L66.9794 8.866Z" fill="#060048"/>
<path d="M51.3089 19.778C52.8899 18.197 53.6959 16.244 53.6959 13.95C53.6959 11.656 52.8899 9.734 51.3089 8.153C49.7279 6.572 47.7749 5.766 45.4809 5.766C43.1869 5.766 41.2339 6.572 39.6529 8.153C38.0719 9.734 37.2969 11.656 37.2969 13.95C37.2969 16.244 38.0719 18.197 39.6529 19.778C41.2339 21.359 43.1869 22.134 45.4809 22.134C47.7749 22.134 49.7279 21.359 51.3089 19.778ZM42.4739 17.019C41.6989 16.213 41.2959 15.19 41.2959 13.95C41.2959 12.71 41.6989 11.687 42.4739 10.881C43.2799 10.075 44.2719 9.672 45.4809 9.672C46.6899 9.672 47.6819 10.075 48.4879 10.881C49.2939 11.687 49.6969 12.71 49.6969 13.95C49.6969 15.19 49.2939 16.213 48.4879 17.019C47.6819 17.825 46.6899 18.228 45.4809 18.228C44.2719 18.228 43.2799 17.825 42.4739 17.019Z" fill="#060048"/>
<path d="M30.4466 8.029C29.2686 6.51 27.5946 5.766 25.4246 5.766C23.3476 5.766 21.5496 6.572 20.0616 8.153C18.6046 9.734 17.8606 11.656 17.8606 13.95C17.8606 16.244 18.6046 18.197 20.0616 19.778C21.5496 21.359 23.3476 22.134 25.4246 22.134C27.5946 22.134 29.2686 21.39 30.4466 19.871V21.7H34.4456V0H30.4466V8.029ZM23.0686 17.112C22.2626 16.275 21.8596 15.221 21.8596 13.95C21.8596 12.679 22.2626 11.625 23.0686 10.819C23.9056 9.982 24.9286 9.579 26.1686 9.579C27.4086 9.579 28.4316 9.982 29.2376 10.819C30.0436 11.625 30.4466 12.679 30.4466 13.95C30.4466 15.221 30.0436 16.275 29.2376 17.112C28.4316 17.918 27.4086 18.321 26.1686 18.321C24.9286 18.321 23.9056 17.918 23.0686 17.112Z" fill="#060048"/>
<path d="M15.872 15.593C15.965 15.004 16.027 14.477 16.027 13.95C16.027 11.625 15.283 9.703 13.795 8.122C12.338 6.541 10.447 5.766 8.184 5.766C5.797 5.766 3.813 6.541 2.294 8.122C0.775 9.672 0 11.625 0 13.95C0 16.306 0.775 18.259 2.325 19.809C3.875 21.359 5.921 22.134 8.494 22.134C11.47 22.134 13.733 21.018 15.252 18.817L12.028 16.957C11.253 17.98 10.075 18.507 8.556 18.507C6.169 18.507 4.712 17.546 4.185 15.593H15.872ZM4.123 12.493C4.588 10.509 6.045 9.362 8.184 9.362C10.013 9.362 11.563 10.385 12.028 12.493H4.123Z" fill="#060048"/>
<path d="M164.171 13.428H161.685V18.004C161.685 18.3853 161.78 18.664 161.97 18.84C162.161 19.016 162.44 19.1187 162.806 19.148C163.173 19.1627 163.628 19.1553 164.171 19.126V21.7C162.22 21.92 160.841 21.7367 160.035 21.15C159.243 20.5633 158.846 19.5147 158.846 18.004V13.428H156.932V10.7H158.846V8.47799L161.685 7.61999V10.7H164.171V13.428Z" fill="#566777"/>
<path d="M151.406 22.008C149.748 22.008 148.362 21.4507 147.248 20.336C146.148 19.2213 145.598 17.8427 145.598 16.2C145.598 14.5573 146.148 13.1787 147.248 12.064C148.362 10.9493 149.748 10.392 151.406 10.392C152.476 10.392 153.452 10.6487 154.332 11.162C155.212 11.6753 155.879 12.3647 156.334 13.23L153.892 14.66C153.672 14.2053 153.334 13.846 152.88 13.582C152.44 13.318 151.941 13.186 151.384 13.186C150.533 13.186 149.829 13.472 149.272 14.044C148.714 14.6013 148.436 15.32 148.436 16.2C148.436 17.0653 148.714 17.784 149.272 18.356C149.829 18.9133 150.533 19.192 151.384 19.192C151.956 19.192 152.462 19.0673 152.902 18.818C153.356 18.554 153.694 18.1947 153.914 17.74L156.378 19.148C155.894 20.0133 155.212 20.71 154.332 21.238C153.452 21.7513 152.476 22.008 151.406 22.008Z" fill="#566777"/>
<path d="M140.758 10.7H143.596V21.7H140.758V20.402C139.907 21.4727 138.712 22.008 137.172 22.008C135.705 22.008 134.444 21.4507 133.388 20.336C132.347 19.2067 131.826 17.828 131.826 16.2C131.826 14.572 132.347 13.2007 133.388 12.086C134.444 10.9567 135.705 10.392 137.172 10.392C138.712 10.392 139.907 10.9273 140.758 11.998V10.7ZM135.522 18.444C136.094 19.016 136.82 19.302 137.7 19.302C138.58 19.302 139.306 19.016 139.878 18.444C140.465 17.8573 140.758 17.1093 140.758 16.2C140.758 15.2907 140.465 14.55 139.878 13.978C139.306 13.3913 138.58 13.098 137.7 13.098C136.82 13.098 136.094 13.3913 135.522 13.978C134.95 14.55 134.664 15.2907 134.664 16.2C134.664 17.1093 134.95 17.8573 135.522 18.444Z" fill="#566777"/>
<path d="M127.802 12.592C128.066 11.888 128.499 11.36 129.1 11.008C129.716 10.656 130.398 10.48 131.146 10.48V13.648C130.281 13.5453 129.504 13.7213 128.814 14.176C128.14 14.6307 127.802 15.386 127.802 16.442V21.7H124.964V10.7H127.802V12.592Z" fill="#566777"/>
<path d="M122.792 13.428H120.306V18.004C120.306 18.3853 120.401 18.664 120.592 18.84C120.782 19.016 121.061 19.1187 121.428 19.148C121.794 19.1627 122.249 19.1553 122.792 19.126V21.7C120.841 21.92 119.462 21.7367 118.656 21.15C117.864 20.5633 117.468 19.5147 117.468 18.004V13.428H115.554V10.7H117.468V8.47799L120.306 7.61999V10.7H122.792V13.428Z" fill="#566777"/>
<path d="M115.083 21.7H111.805L109.429 18.356L107.031 21.7H103.753L107.779 16.09L103.929 10.7H107.207L109.429 13.802L111.651 10.7H114.907L111.057 16.068L115.083 21.7Z" fill="#566777"/>
<path d="M96.443 18.796H102.933V21.7H93.407V6.29999H102.823V9.20399H96.443V12.482H102.273V15.342H96.443V18.796Z" fill="#566777"/>
</svg>
