<svg width="213" height="32" viewbox="0 0 214 33" fill="none" xmlns="http://www.w3.org/2000/svg"><path d="M16.895 19.593c.093-.589.155-1.116.155-1.643 0-2.325-.744-4.247-2.232-5.828-1.457-1.581-3.348-2.356-5.611-2.356-2.387 0-4.371.775-5.89 2.356-1.52 1.55-2.294 3.503-2.294 5.828 0 2.356.775 4.309 2.325 5.859 1.55 1.55 3.596 2.325 6.169 2.325 2.976 0 5.239-1.116 6.758-3.317l-3.224-1.86c-.775 1.023-1.953 1.55-3.472 1.55-2.387 0-3.844-.961-4.371-2.914h11.687Zm-11.75-3.1c.466-1.984 1.923-3.131 4.062-3.131 1.829 0 3.379 1.023 3.844 3.131H5.146ZM31.47 12.029c-1.178-1.519-2.852-2.263-5.022-2.263-2.078 0-3.875.806-5.363 2.387-1.457 1.581-2.201 3.503-2.201 5.797 0 2.294.744 4.247 2.2 5.828 1.489 1.581 3.287 2.356 5.364 2.356 2.17 0 3.844-.744 5.022-2.263V25.7h3.999V4h-4v8.029Zm-7.378 9.083c-.806-.837-1.21-1.891-1.21-3.162s.404-2.325 1.21-3.131c.837-.837 1.86-1.24 3.1-1.24s2.263.403 3.069 1.24c.806.806 1.209 1.86 1.209 3.131 0 1.271-.403 2.325-1.21 3.162-.805.806-1.828 1.209-3.068 1.209s-2.263-.403-3.1-1.209ZM52.332 23.778c1.58-1.581 2.387-3.534 2.387-5.828 0-2.294-.806-4.216-2.387-5.797-1.581-1.581-3.534-2.387-5.828-2.387-2.294 0-4.247.806-5.828 2.387-1.581 1.581-2.356 3.503-2.356 5.797 0 2.294.775 4.247 2.356 5.828 1.58 1.581 3.534 2.356 5.828 2.356 2.294 0 4.247-.775 5.828-2.356Zm-8.835-2.759c-.775-.806-1.178-1.829-1.178-3.069s.403-2.263 1.178-3.069c.806-.806 1.798-1.209 3.007-1.209s2.2.403 3.007 1.209c.806.806 1.209 1.829 1.209 3.069s-.403 2.263-1.21 3.069c-.805.806-1.797 1.209-3.006 1.209-1.21 0-2.201-.403-3.007-1.209ZM68.002 12.866V10.2H56.377v3.751h6.231l-6.54 9.083V25.7h12.244v-3.751H61.43l6.572-9.083ZM83.483 23.778c1.581-1.581 2.387-3.534 2.387-5.828 0-2.294-.806-4.216-2.387-5.797-1.58-1.581-3.534-2.387-5.828-2.387-2.294 0-4.247.806-5.828 2.387-1.58 1.581-2.356 3.503-2.356 5.797 0 2.294.775 4.247 2.356 5.828 1.581 1.581 3.534 2.356 5.828 2.356 2.294 0 4.247-.775 5.828-2.356Zm-8.835-2.759c-.775-.806-1.178-1.829-1.178-3.069s.403-2.263 1.178-3.069c.806-.806 1.798-1.209 3.007-1.209 1.21 0 2.201.403 3.007 1.209s1.21 1.829 1.21 3.069-.404 2.263-1.21 3.069c-.806.806-1.798 1.209-3.007 1.209s-2.2-.403-3.007-1.209Z" fill="#060048"/><path d="M103.334 16.416h-5.72V10.3h-3.037v15.4h3.037v-6.38h5.72v6.38h3.014V10.3h-3.014v6.116ZM119.768 21.366a7.43 7.43 0 0 0 .11-1.166c0-1.65-.528-3.014-1.584-4.136-1.034-1.122-2.376-1.672-3.982-1.672-1.694 0-3.102.55-4.18 1.672-1.078 1.1-1.628 2.486-1.628 4.136 0 1.672.55 3.058 1.65 4.158 1.1 1.1 2.552 1.65 4.378 1.65 2.112 0 3.718-.792 4.796-2.354l-2.288-1.32c-.55.726-1.386 1.1-2.464 1.1-1.694 0-2.728-.682-3.102-2.068h8.294Zm-8.338-2.2c.33-1.408 1.364-2.222 2.882-2.222 1.298 0 2.398.726 2.728 2.222h-5.61ZM124.698 25.7V9.64h-2.838V25.7h2.838ZM133.697 14.392c-1.54 0-2.728.528-3.564 1.606V14.7h-2.838v15.4h2.838v-5.698c.836 1.078 2.024 1.606 3.564 1.606 1.474 0 2.75-.55 3.784-1.672 1.056-1.122 1.584-2.508 1.584-4.136 0-1.628-.528-2.992-1.584-4.114-1.034-1.122-2.31-1.694-3.784-1.694Zm-2.706 8.052c-.572-.594-.858-1.342-.858-2.244 0-.902.286-1.65.858-2.222.572-.594 1.298-.88 2.178-.88.88 0 1.606.286 2.178.88.594.572.88 1.32.88 2.222 0 .902-.286 1.65-.88 2.244-.572.572-1.298.858-2.178.858-.88 0-1.606-.286-2.178-.858ZM151.803 26.008c2.134 0 4.004-1.122 4.972-2.86l-2.464-1.408c-.44.902-1.386 1.452-2.53 1.452-.858 0-1.562-.286-2.112-.836-.55-.572-.836-1.298-.836-2.156 0-1.76 1.254-3.014 2.948-3.014 1.122 0 2.068.572 2.508 1.474l2.442-1.43c-.902-1.738-2.794-2.838-4.928-2.838-1.65 0-3.036.55-4.158 1.672-1.1 1.122-1.65 2.486-1.65 4.136s.55 3.014 1.65 4.136c1.122 1.122 2.508 1.672 4.158 1.672ZM168.796 21.366a7.43 7.43 0 0 0 .11-1.166c0-1.65-.528-3.014-1.584-4.136-1.034-1.122-2.376-1.672-3.982-1.672-1.694 0-3.102.55-4.18 1.672-1.078 1.1-1.628 2.486-1.628 4.136 0 1.672.55 3.058 1.65 4.158 1.1 1.1 2.552 1.65 4.378 1.65 2.112 0 3.718-.792 4.796-2.354l-2.288-1.32c-.55.726-1.386 1.1-2.464 1.1-1.694 0-2.728-.682-3.102-2.068h8.294Zm-8.338-2.2c.33-1.408 1.364-2.222 2.882-2.222 1.298 0 2.398.726 2.728 2.222h-5.61ZM177.003 14.392c-1.496 0-2.596.506-3.278 1.54V14.7h-2.838v11h2.838v-5.94c0-1.826.946-2.728 2.42-2.728 1.32 0 2.178.792 2.178 2.266V25.7h2.838v-6.754c0-1.43-.396-2.53-1.188-3.344-.77-.814-1.76-1.21-2.97-1.21ZM189.876 14.7h-2.486v-3.08l-2.838.858V14.7h-1.914v2.728h1.914v4.576c0 3.014 1.43 4.136 5.324 3.696v-2.574c-1.628.088-2.486.066-2.486-1.122v-4.576h2.486V14.7ZM194.887 14.7h-2.838v11h2.838v-5.258c0-1.056.33-1.804 1.012-2.266.682-.462 1.474-.638 2.332-.528V14.48c-1.496 0-2.816.704-3.344 2.112V14.7ZM210.175 21.366a7.43 7.43 0 0 0 .11-1.166c0-1.65-.528-3.014-1.584-4.136-1.034-1.122-2.376-1.672-3.982-1.672-1.694 0-3.102.55-4.18 1.672-1.078 1.1-1.628 2.486-1.628 4.136 0 1.672.55 3.058 1.65 4.158 1.1 1.1 2.552 1.65 4.378 1.65 2.112 0 3.718-.792 4.796-2.354l-2.288-1.32c-.55.726-1.386 1.1-2.464 1.1-1.694 0-2.728-.682-3.102-2.068h8.294Zm-8.338-2.2c.33-1.408 1.364-2.222 2.882-2.222 1.298 0 2.398.726 2.728 2.222h-5.61Z" fill="#2818F9"/></svg>