<svg xmlns="http://www.w3.org/2000/svg" viewBox="0 0 132.48 16.52"><path fill="#1d1e40" d="M10.05 9.87c.06-.37.1-.71.1-1.04 0-1.47-.47-2.69-1.41-3.69-.92-1-2.12-1.49-3.55-1.49-1.51 0-2.77.49-3.73 1.49C.49 6.12 0 7.36 0 8.83c0 1.49.49 2.73 1.47 3.71s2.28 1.47 3.91 1.47c1.88 0 3.32-.71 4.28-2.1l-2.04-1.18c-.49.65-1.24.98-2.2.98-1.51 0-2.43-.61-2.77-1.84h7.4zM2.61 7.91c.29-1.26 1.22-1.98 2.57-1.98 1.16 0 2.14.65 2.43 1.98h-5zM19.28 5.08c-.75-.96-1.81-1.43-3.18-1.43-1.31 0-2.45.51-3.4 1.51-.92 1-1.39 2.22-1.39 3.67s.47 2.69 1.39 3.69c.94 1 2.08 1.49 3.4 1.49 1.37 0 2.43-.47 3.18-1.43v1.16h2.53V0h-2.53v5.08zm-4.68 5.75c-.51-.53-.77-1.2-.77-2s.26-1.47.77-1.98c.53-.53 1.18-.79 1.96-.79.79 0 1.43.26 1.94.79.51.51.77 1.18.77 1.98s-.26 1.47-.77 2c-.51.51-1.16.77-1.94.77s-1.43-.26-1.96-.77zM32.48 12.52c1-1 1.51-2.24 1.51-3.69s-.51-2.67-1.51-3.67-2.24-1.51-3.69-1.51c-1.45 0-2.69.51-3.69 1.51s-1.49 2.22-1.49 3.67.49 2.69 1.49 3.69 2.24 1.49 3.69 1.49c1.46 0 2.69-.49 3.69-1.49zm-5.59-1.75c-.49-.51-.75-1.16-.75-1.94s.26-1.43.75-1.94c.51-.51 1.14-.77 1.9-.77.77 0 1.39.26 1.9.77s.77 1.16.77 1.94-.26 1.43-.77 1.94-1.14.77-1.9.77-1.39-.26-1.9-.77zM42.4 5.61V3.93h-7.36V6.3h3.94l-4.14 5.75v1.69h7.75v-2.37h-4.36l4.17-5.76zM52.21 12.52c1-1 1.51-2.24 1.51-3.69s-.51-2.67-1.51-3.67-2.24-1.51-3.69-1.51c-1.45 0-2.69.51-3.69 1.51s-1.49 2.22-1.49 3.67.49 2.69 1.49 3.69 2.24 1.49 3.69 1.49c1.45 0 2.68-.49 3.69-1.49zm-5.6-1.75c-.49-.51-.75-1.16-.75-1.94s.26-1.43.75-1.94c.51-.51 1.14-.77 1.9-.77.77 0 1.39.26 1.9.77s.77 1.16.77 1.94-.26 1.43-.77 1.94-1.14.77-1.9.77-1.39-.26-1.9-.77z"/><path fill="#344b9b" d="M64.77 7.86h-3.62V3.99h-1.92v9.75h1.92V9.7h3.62v4.04h1.91V3.99h-1.91v3.87zM75.18 10.99c.04-.26.07-.5.07-.74 0-1.04-.33-1.91-1-2.62-.65-.71-1.5-1.06-2.52-1.06-1.07 0-1.96.35-2.65 1.06-.68.7-1.03 1.57-1.03 2.62 0 1.06.35 1.94 1.04 2.63.7.7 1.62 1.04 2.77 1.04 1.34 0 2.35-.5 3.04-1.49l-1.45-.84c-.35.46-.88.7-1.56.7-1.07 0-1.73-.43-1.96-1.31h5.25zM69.9 9.6c.21-.89.86-1.41 1.82-1.41.82 0 1.52.46 1.73 1.41H69.9zM78.3 13.74V3.57h-1.8v10.17h1.8zM84 6.58c-.97 0-1.73.33-2.26 1.02v-.83h-1.8v9.75h1.8v-3.61c.53.68 1.28 1.02 2.26 1.02.93 0 1.74-.35 2.4-1.06.67-.71 1-1.59 1-2.62s-.33-1.89-1-2.6c-.66-.71-1.47-1.07-2.4-1.07zm-1.72 5.1c-.36-.38-.54-.85-.54-1.42s.18-1.04.54-1.41c.36-.38.82-.56 1.38-.56s1.02.18 1.38.56c.38.36.56.84.56 1.41s-.18 1.04-.56 1.42c-.36.36-.82.54-1.38.54s-1.02-.18-1.38-.54zM95.46 13.93c1.35 0 2.53-.71 3.15-1.81l-1.56-.89c-.28.57-.88.92-1.6.92-.54 0-.99-.18-1.34-.53-.35-.36-.53-.82-.53-1.36 0-1.11.79-1.91 1.87-1.91.71 0 1.31.36 1.59.93l1.55-.91c-.57-1.1-1.77-1.8-3.12-1.8-1.04 0-1.92.35-2.63 1.06-.7.71-1.04 1.57-1.04 2.62s.35 1.91 1.04 2.62c.7.71 1.57 1.06 2.62 1.06zM106.22 10.99c.04-.26.07-.5.07-.74 0-1.04-.33-1.91-1-2.62-.65-.71-1.5-1.06-2.52-1.06-1.07 0-1.96.35-2.65 1.06-.68.7-1.03 1.57-1.03 2.62 0 1.06.35 1.94 1.04 2.63.7.7 1.62 1.04 2.77 1.04 1.34 0 2.35-.5 3.04-1.49l-1.45-.84c-.35.46-.88.7-1.56.7-1.07 0-1.73-.43-1.96-1.31h5.25zm-5.28-1.39c.21-.89.86-1.41 1.82-1.41.82 0 1.52.46 1.73 1.41h-3.55zM111.41 6.58c-.95 0-1.64.32-2.08.97v-.78h-1.8v6.96h1.8V9.98c0-1.16.6-1.73 1.53-1.73.84 0 1.38.5 1.38 1.43v4.05h1.8V9.46c0-.91-.25-1.6-.75-2.12-.49-.51-1.11-.76-1.88-.76zM119.56 6.77h-1.57V4.82l-1.8.54v1.41h-1.21V8.5h1.21v2.9c0 1.91.91 2.62 3.37 2.34v-1.63c-1.03.06-1.57.04-1.57-.71V8.5h1.57V6.77zM122.73 6.77h-1.8v6.96h1.8V10.4c0-.67.21-1.14.64-1.43s.93-.4 1.48-.33V6.63c-.95 0-1.78.45-2.12 1.34v-1.2zM132.41 10.99c.04-.26.07-.5.07-.74 0-1.04-.33-1.91-1-2.62-.65-.71-1.5-1.06-2.52-1.06-1.07 0-1.96.35-2.65 1.06-.68.7-1.03 1.57-1.03 2.62 0 1.06.35 1.94 1.04 2.63.7.7 1.62 1.04 2.77 1.04 1.34 0 2.35-.5 3.04-1.49l-1.45-.84c-.35.46-.88.7-1.56.7-1.07 0-1.73-.43-1.96-1.31h5.25zm-5.28-1.39c.21-.89.86-1.41 1.82-1.41.82 0 1.52.46 1.73 1.41h-3.55z"/></svg>