<svg xmlns="http://www.w3.org/2000/svg" viewBox="0 0 99.02 16.52"><path fill="#1d1e40" d="M2.63 9.8c.33 1.22 1.24 1.83 2.74 1.83.95 0 1.69-.33 2.18-.97l2.02 1.17c-.96 1.37-2.38 2.07-4.24 2.07-1.61 0-2.9-.49-3.87-1.46C.49 11.47 0 10.24 0 8.77c0-1.46.49-2.68 1.44-3.65.95-.99 2.2-1.48 3.69-1.48 1.42 0 2.6.49 3.52 1.48.93.99 1.4 2.2 1.4 3.65 0 .33-.04.66-.1 1.03H2.63zm4.91-1.95c-.29-1.32-1.26-1.96-2.41-1.96-1.34 0-2.25.72-2.55 1.96h4.96zM18.91.02h2.51v13.59h-2.51v-1.15c-.74.95-1.79 1.42-3.15 1.42-1.3 0-2.43-.49-3.36-1.48-.91-.99-1.38-2.22-1.38-3.65 0-1.43.47-2.64 1.38-3.63.93-.99 2.06-1.5 3.36-1.5 1.36 0 2.41.47 3.15 1.42V.02zm-2.69 11.49c.78 0 1.42-.25 1.92-.76.51-.52.76-1.19.76-1.98 0-.8-.25-1.46-.76-1.96-.51-.52-1.15-.78-1.92-.78-.78 0-1.42.25-1.94.78-.51.51-.76 1.17-.76 1.96 0 .8.25 1.46.76 1.98.52.5 1.17.76 1.94.76zM27.64 13.89c-1.44 0-2.66-.49-3.65-1.48s-1.48-2.22-1.48-3.65.49-2.63 1.48-3.62 2.22-1.5 3.65-1.5c1.44 0 2.66.51 3.65 1.5s1.5 2.2 1.5 3.63-.51 2.66-1.5 3.65-2.21 1.47-3.65 1.47zm0-2.44c.76 0 1.38-.25 1.89-.76s.76-1.15.76-1.92-.25-1.42-.76-1.92c-.51-.51-1.13-.76-1.89-.76s-1.38.25-1.89.76c-.49.51-.74 1.15-.74 1.92s.25 1.42.74 1.92c.51.5 1.13.76 1.89.76zM36.72 11.27h4.31v2.35h-7.67v-1.67l4.1-5.69h-3.91V3.91h7.29v1.67l-4.12 5.69zM46.6 13.89c-1.44 0-2.66-.49-3.65-1.48-.99-.99-1.48-2.22-1.48-3.65s.49-2.64 1.48-3.63c.99-.99 2.22-1.5 3.65-1.5 1.44 0 2.66.51 3.65 1.5.99.99 1.5 2.2 1.5 3.63s-.51 2.66-1.5 3.65c-.99 1-2.21 1.48-3.65 1.48zm0-2.44c.76 0 1.38-.25 1.89-.76s.76-1.15.76-1.92-.25-1.42-.76-1.92c-.51-.51-1.13-.76-1.89-.76s-1.38.25-1.89.76c-.49.51-.74 1.15-.74 1.92s.25 1.42.74 1.92c.51.5 1.13.76 1.89.76z"/><path fill="#f18758" d="M58.16 13.62h1.86V4.2h-1.86v9.42zM65.42 6.7c-.92 0-1.59.31-2.01.94v-.75h-1.74v6.73h1.74V9.98c0-1.12.58-1.67 1.48-1.67.81 0 1.33.48 1.33 1.39v3.92h1.74V9.49c0-.88-.24-1.55-.73-2.05-.46-.5-1.07-.74-1.81-.74zM71.05 8.8c0-.34.34-.55.78-.55.5 0 .86.23 1.08.69l1.48-.81c-.52-.92-1.47-1.43-2.56-1.43-.73 0-1.33.19-1.83.58-.48.38-.73.9-.73 1.56 0 1.4 1.25 1.82 2.25 2.07.69.18 1.23.38 1.23.74 0 .39-.31.58-.93.58-.69 0-1.12-.3-1.32-.88l-1.51.85c.5 1.06 1.44 1.6 2.83 1.6.77 0 1.41-.19 1.93-.55.53-.38.78-.92.78-1.6.01-1.44-1.27-1.91-2.25-2.11-.69-.17-1.23-.38-1.23-.74zM76.5 6.08c.59 0 1.08-.48 1.08-1.06s-.48-1.08-1.08-1.08c-.58 0-1.06.5-1.06 1.08s.49 1.06 1.06 1.06zm.88 7.54V6.89h-1.74v6.73h1.74zM84.13 7.72c-.52-.68-1.23-1.02-2.16-1.02-.94 0-1.74.34-2.38 1.01-.65.67-.97 1.48-.97 2.44s.32 1.78.96 2.45c.65.66 1.44 1 2.4 1 .93 0 1.64-.34 2.15-1.02v.73c0 1.06-.67 1.66-1.76 1.66-.83 0-1.43-.31-1.76-.94l-1.48.85c.59 1.08 1.74 1.64 3.19 1.64.97 0 1.79-.27 2.48-.82.69-.55 1.04-1.35 1.04-2.38V6.89h-1.7v.83zm0 2.43c0 1.08-.79 1.84-1.88 1.84-1.09 0-1.88-.77-1.88-1.84 0-.53.18-.97.53-1.31.36-.35.81-.53 1.36-.53s1 .18 1.35.53c.34.34.52.78.52 1.31zM91.14 6.7c-.92 0-1.59.31-2.01.94V4.2H87.4v9.42h1.74V9.98c0-1.12.58-1.67 1.48-1.67.81 0 1.33.48 1.33 1.39v3.92h1.74V9.49c0-.88-.24-1.55-.73-2.05-.47-.5-1.08-.74-1.82-.74zM99.02 6.89H97.5V5l-1.74.53v1.36h-1.17v1.67h1.17v2.8c0 1.84.88 2.53 3.26 2.26v-1.58c-1 .05-1.52.04-1.52-.69v-2.8h1.52V6.89z"/></svg>