<svg xmlns="http://www.w3.org/2000/svg" viewBox="0 0 91.61 16.52"><path fill="#1d1e40" d="M2.66 9.89c.33 1.23 1.25 1.85 2.77 1.85.96 0 1.71-.33 2.2-.98l2.04 1.18c-.96 1.4-2.4 2.1-4.29 2.1-1.63 0-2.93-.49-3.91-1.48C.49 11.58 0 10.34 0 8.85c0-1.48.49-2.71 1.46-3.69.96-1 2.22-1.5 3.73-1.5 1.44 0 2.63.49 3.56 1.5.94 1 1.42 2.22 1.42 3.69 0 .33-.04.67-.1 1.04H2.66zm4.97-1.97c-.29-1.34-1.28-1.99-2.44-1.99-1.36 0-2.28.73-2.58 1.98h5.02zM19.13 0h2.54v13.75h-2.54v-1.16c-.75.96-1.81 1.44-3.18 1.44-1.31 0-2.46-.49-3.4-1.5-.92-1-1.4-2.24-1.4-3.69 0-1.45.47-2.67 1.4-3.67.94-1 2.08-1.52 3.4-1.52 1.38 0 2.44.47 3.18 1.44V0zm-2.72 11.61c.79 0 1.44-.25 1.94-.77.51-.53.77-1.2.77-2 0-.81-.25-1.48-.77-1.98-.51-.53-1.16-.79-1.94-.79-.79 0-1.44.25-1.96.79-.51.51-.77 1.18-.77 1.98 0 .81.25 1.48.77 2 .52.51 1.18.77 1.96.77zM27.96 14.03c-1.46 0-2.69-.49-3.69-1.5-1-1-1.5-2.24-1.5-3.69 0-1.45.49-2.67 1.5-3.67 1-1 2.24-1.52 3.69-1.52 1.46 0 2.69.51 3.69 1.52 1 1 1.52 2.22 1.52 3.67 0 1.45-.51 2.69-1.52 3.69-1 1.01-2.23 1.5-3.69 1.5zm0-2.47c.77 0 1.4-.25 1.91-.77s.77-1.16.77-1.94-.25-1.44-.77-1.94c-.51-.51-1.14-.77-1.91-.77s-1.4.25-1.91.77c-.49.51-.75 1.16-.75 1.94s.25 1.44.75 1.94c.52.51 1.15.77 1.91.77zM37.14 11.37h4.36v2.38h-7.76v-1.69l4.15-5.75h-3.95V3.93h7.37v1.69l-4.17 5.75zM47.14 14.03c-1.46 0-2.69-.49-3.69-1.5-1-1-1.5-2.24-1.5-3.69 0-1.45.49-2.67 1.5-3.67 1-1 2.24-1.52 3.69-1.52 1.46 0 2.69.51 3.69 1.52 1 1 1.52 2.22 1.52 3.67 0 1.45-.51 2.69-1.52 3.69-1 1.01-2.23 1.5-3.69 1.5zm0-2.47c.77 0 1.4-.25 1.91-.77s.77-1.16.77-1.94-.25-1.44-.77-1.94c-.51-.51-1.14-.77-1.91-.77s-1.4.25-1.91.77c-.49.51-.75 1.16-.75 1.94s.25 1.44.75 1.94c.52.51 1.14.77 1.91.77z"/><path fill="#4ec2ec" d="m65.94 4.27-2.72 4.51-2.74-4.51h-1.93v9.53h1.88V7.63l2.68 4.41h.22l2.68-4.43v6.18h1.87V4.27h-1.94zM74.74 7.79c-.53-.67-1.27-.99-2.22-.99-.91 0-1.69.35-2.34 1.05-.64.69-.97 1.54-.97 2.55 0 1.01.33 1.87.97 2.56.65.69 1.43 1.04 2.34 1.04.95 0 1.69-.33 2.22-.99v.8h1.76V6.99h-1.76v.8zm-3.24 3.99c-.35-.37-.53-.83-.53-1.39 0-.56.18-1.02.53-1.38.35-.37.8-.54 1.35-.54.54 0 .99.18 1.35.54.37.35.54.82.54 1.38 0 .56-.18 1.02-.54 1.39-.35.35-.8.53-1.35.53-.54.01-.99-.17-1.35-.53zM82.06 6.8c-.95 0-1.69.33-2.21.99v-.8h-1.76v9.53h1.76V13c.52.67 1.25.99 2.21.99.91 0 1.7-.34 2.34-1.04.65-.69.98-1.55.98-2.56s-.33-1.85-.98-2.55c-.64-.69-1.43-1.04-2.34-1.04zm-1.68 4.98c-.35-.37-.53-.83-.53-1.39 0-.56.18-1.02.53-1.38.35-.37.8-.54 1.35-.54.54 0 .99.18 1.35.54.37.35.54.82.54 1.38 0 .56-.18 1.02-.54 1.39-.35.35-.8.53-1.35.53-.55.01-.99-.17-1.35-.53zM88.09 8.92c0-.34.34-.56.79-.56.5 0 .87.23 1.09.69l1.5-.82c-.53-.93-1.48-1.44-2.59-1.44-.74 0-1.35.19-1.85.59-.49.38-.74.91-.74 1.58 0 1.42 1.27 1.84 2.27 2.1.69.18 1.24.38 1.24.75 0 .39-.31.59-.94.59-.69 0-1.13-.3-1.33-.89l-1.53.86c.5 1.08 1.46 1.62 2.86 1.62.78 0 1.43-.19 1.95-.56.53-.38.79-.93.79-1.62.01-1.46-1.28-1.93-2.27-2.14-.69-.17-1.24-.38-1.24-.75z"/></svg>