<svg xmlns="http://www.w3.org/2000/svg" viewBox="0 0 121.13 16.52"><path fill="#060048" d="M2.66 9.89c.33 1.23 1.25 1.85 2.77 1.85.96 0 1.71-.33 2.2-.98l2.04 1.18c-.96 1.4-2.4 2.1-4.29 2.1-1.63 0-2.93-.49-3.91-1.48C.49 11.58 0 10.34 0 8.85c0-1.48.49-2.71 1.46-3.69.96-1 2.22-1.5 3.73-1.5 1.44 0 2.63.49 3.56 1.5.94 1 1.42 2.22 1.42 3.69 0 .33-.04.67-.1 1.04H2.66zm4.97-1.97c-.29-1.34-1.28-1.99-2.44-1.99-1.36 0-2.28.73-2.58 1.98h5.02zM19.13 0h2.54v13.75h-2.54v-1.16c-.75.96-1.81 1.44-3.18 1.44-1.32 0-2.46-.49-3.4-1.5-.92-1-1.4-2.24-1.4-3.69 0-1.45.47-2.67 1.4-3.67.94-1 2.08-1.52 3.4-1.52 1.37 0 2.44.47 3.18 1.44V0zm-2.72 11.61c.79 0 1.44-.25 1.94-.77.51-.53.77-1.2.77-2 0-.81-.25-1.48-.77-1.98-.51-.53-1.16-.79-1.94-.79-.79 0-1.44.25-1.96.79-.51.51-.77 1.18-.77 1.98 0 .81.25 1.48.77 2 .52.51 1.18.77 1.96.77zM27.96 14.03c-1.46 0-2.69-.49-3.69-1.5-1-1-1.5-2.24-1.5-3.69 0-1.45.49-2.67 1.5-3.67 1-1 2.24-1.52 3.69-1.52 1.46 0 2.69.51 3.69 1.52 1 1 1.52 2.22 1.52 3.67 0 1.45-.51 2.69-1.52 3.69-1 1.01-2.23 1.5-3.69 1.5zm0-2.48c.77 0 1.4-.25 1.91-.77.51-.51.77-1.16.77-1.94s-.25-1.44-.77-1.94c-.51-.51-1.14-.77-1.91-.77s-1.4.25-1.91.77c-.49.51-.75 1.16-.75 1.94s.25 1.44.75 1.94c.52.51 1.14.77 1.91.77zM37.14 11.37h4.36v2.38h-7.76v-1.69l4.15-5.75h-3.95V3.93h7.37v1.69l-4.17 5.75zM47.14 14.03c-1.46 0-2.69-.49-3.69-1.5-1-1-1.5-2.24-1.5-3.69 0-1.45.49-2.67 1.5-3.67 1-1 2.24-1.52 3.69-1.52 1.46 0 2.69.51 3.69 1.52 1 1 1.52 2.22 1.52 3.67 0 1.45-.51 2.69-1.52 3.69-1 1.01-2.23 1.5-3.69 1.5zm0-2.48c.77 0 1.4-.25 1.91-.77.51-.51.77-1.16.77-1.94s-.25-1.44-.77-1.94c-.51-.51-1.14-.77-1.91-.77s-1.4.25-1.91.77c-.49.51-.75 1.16-.75 1.94s.25 1.44.75 1.94c.52.51 1.14.77 1.91.77z"/><path fill="#7E0BC2" d="M66.57 12.56c.97-.97 1.44-2.14 1.44-3.53 0-1.39-.48-2.56-1.44-3.51-.97-.97-2.14-1.44-3.51-1.44-1.38 0-2.55.48-3.51 1.44-.95.95-1.43 2.12-1.43 3.51 0 1.39.48 2.56 1.43 3.53.97.95 2.14 1.43 3.51 1.43 1.37 0 2.54-.48 3.51-1.43zm-5.71-1.28c-.59-.59-.89-1.33-.89-2.25 0-.91.3-1.66.89-2.25.59-.59 1.32-.89 2.19-.89.87 0 1.61.3 2.19.89.59.59.89 1.33.89 2.25 0 .91-.3 1.66-.89 2.25-.59.59-1.32.87-2.19.87-.87 0-1.61-.28-2.19-.87zM72.49 13.99c1.32 0 2.48-.69 3.08-1.77l-1.53-.87c-.27.56-.86.9-1.57.9-.53 0-.97-.18-1.31-.52-.34-.35-.52-.8-.52-1.33 0-1.09.78-1.87 1.82-1.87.69 0 1.28.35 1.55.91l1.51-.89c-.56-1.08-1.73-1.76-3.05-1.76-1.02 0-1.88.34-2.57 1.03-.68.69-1.02 1.54-1.02 2.56s.34 1.87 1.02 2.56c.71.71 1.57 1.05 2.59 1.05zM79.63 13.99c1.32 0 2.48-.69 3.08-1.77l-1.53-.87c-.27.56-.86.9-1.57.9-.53 0-.97-.18-1.31-.52-.34-.35-.52-.8-.52-1.33 0-1.09.78-1.87 1.82-1.87.69 0 1.28.35 1.55.91l1.51-.89c-.56-1.08-1.73-1.76-3.05-1.76-1.02 0-1.88.34-2.57 1.03-.68.69-1.02 1.54-1.02 2.56s.34 1.87 1.02 2.56c.71.71 1.57 1.05 2.59 1.05zM88.18 10.67c0 1.13-.59 1.69-1.5 1.69-.82 0-1.35-.49-1.35-1.4V6.99h-1.76v4.18c0 .89.25 1.57.72 2.07.49.5 1.1.75 1.85.75.93 0 1.61-.31 2.03-.95v.76h1.76V6.99h-1.76v3.68zM95.51 6.8c-.95 0-1.69.33-2.21.99v-.8h-1.76v9.53h1.76V13c.52.67 1.25.99 2.21.99.91 0 1.7-.34 2.34-1.04.65-.69.98-1.55.98-2.56s-.33-1.85-.98-2.55c-.63-.69-1.42-1.04-2.34-1.04zm-1.67 4.98c-.35-.37-.53-.83-.53-1.39 0-.56.18-1.02.53-1.38.35-.37.8-.54 1.35-.54.54 0 .99.18 1.35.54.37.35.54.82.54 1.38 0 .56-.18 1.02-.54 1.39-.35.35-.8.53-1.35.53-.55.01-1-.17-1.35-.53zM100.95 6.17c.6 0 1.09-.49 1.09-1.08S101.55 4 100.95 4c-.59 0-1.08.5-1.08 1.09s.49 1.08 1.08 1.08zm.88 7.63V6.99h-1.76v6.81h1.76zM110.06 11.12c.04-.26.07-.49.07-.72 0-1.02-.33-1.87-.98-2.56-.64-.69-1.47-1.03-2.46-1.03-1.05 0-1.92.34-2.59 1.03-.67.68-1.01 1.54-1.01 2.56 0 1.03.34 1.89 1.02 2.57s1.58 1.02 2.71 1.02c1.31 0 2.3-.49 2.97-1.46l-1.42-.82c-.34.45-.86.68-1.53.68-1.05 0-1.69-.42-1.92-1.28h5.14zm-5.16-1.36c.21-.87.85-1.38 1.78-1.38.8 0 1.48.45 1.69 1.38h-3.47zM113.11 6.99h-1.76v6.81h1.76v-3.25c0-.65.2-1.12.63-1.4.42-.29.91-.39 1.44-.33V6.86c-.93 0-1.74.44-2.07 1.31V6.99zM117.61 8.93c0-.34.34-.56.79-.56.5 0 .87.23 1.09.69l1.5-.82c-.53-.93-1.48-1.44-2.59-1.44-.74 0-1.35.19-1.85.59-.49.38-.74.91-.74 1.58 0 1.42 1.27 1.84 2.28 2.1.69.18 1.24.38 1.24.75 0 .39-.31.59-.94.59-.69 0-1.13-.3-1.33-.89l-1.53.86c.5 1.08 1.46 1.62 2.86 1.62.78 0 1.43-.19 1.95-.56.53-.38.79-.93.79-1.62.01-1.46-1.28-1.93-2.27-2.14-.7-.18-1.25-.39-1.25-.75z"/></svg>