<svg viewBox="0 0 104 17" xmlns="http://www.w3.org/2000/svg">
<path d="M9.79652 10.0943C9.85392 9.7308 9.89219 9.40553 9.89219 9.08025C9.89219 7.64522 9.43297 6.45892 8.51455 5.48309C7.61526 4.50727 6.4481 4.02892 5.05133 4.02892C3.57803 4.02892 2.35346 4.50727 1.4159 5.48309C0.478346 6.43978 0 7.64522 0 9.08025C0 10.5344 0.478345 11.7399 1.43504 12.6965C2.39173 13.6532 3.65456 14.1316 5.24267 14.1316C7.07951 14.1316 8.47628 13.4428 9.41384 12.0843L7.42392 10.9362C6.94558 11.5676 6.21849 11.8929 5.28093 11.8929C3.80763 11.8929 2.90834 11.2998 2.58307 10.0943H9.79652ZM2.5448 8.18096C2.83181 6.9564 3.7311 6.24845 5.05133 6.24845C6.18022 6.24845 7.13692 6.87986 7.42392 8.18096H2.5448Z" fill="#060048"/>
<path d="M18.7922 5.42569C18.0652 4.48813 17.0319 4.02892 15.6926 4.02892C14.4106 4.02892 13.3008 4.5264 12.3824 5.50223C11.4831 6.47805 11.0239 7.66435 11.0239 9.08025C11.0239 10.4962 11.4831 11.7016 12.3824 12.6774C13.3008 13.6532 14.4106 14.1316 15.6926 14.1316C17.0319 14.1316 18.0652 13.6724 18.7922 12.7348V13.8637H21.2605V0.470032H18.7922V5.42569ZM14.2384 11.0319C13.7409 10.5153 13.4922 9.86474 13.4922 9.08025C13.4922 8.29577 13.7409 7.64522 14.2384 7.14774C14.755 6.63112 15.3864 6.38238 16.1518 6.38238C16.9171 6.38238 17.5485 6.63112 18.046 7.14774C18.5435 7.64522 18.7922 8.29577 18.7922 9.08025C18.7922 9.86474 18.5435 10.5153 18.046 11.0319C17.5485 11.5294 16.9171 11.7781 16.1518 11.7781C15.3864 11.7781 14.755 11.5294 14.2384 11.0319Z" fill="#060048"/>
<path d="M31.6689 12.6774C32.6447 11.7016 33.1422 10.4962 33.1422 9.08025C33.1422 7.66435 32.6447 6.47805 31.6689 5.50223C30.6931 4.5264 29.4876 4.02892 28.0717 4.02892C26.6558 4.02892 25.4504 4.5264 24.4746 5.50223C23.4987 6.47805 23.0204 7.66435 23.0204 9.08025C23.0204 10.4962 23.4987 11.7016 24.4746 12.6774C25.4504 13.6532 26.6558 14.1316 28.0717 14.1316C29.4876 14.1316 30.6931 13.6532 31.6689 12.6774ZM26.2157 10.9745C25.7374 10.477 25.4887 9.84561 25.4887 9.08025C25.4887 8.3149 25.7374 7.68348 26.2157 7.186C26.7132 6.68852 27.3255 6.43978 28.0717 6.43978C28.8179 6.43978 29.4302 6.68852 29.9277 7.186C30.4252 7.68348 30.6739 8.3149 30.6739 9.08025C30.6739 9.84561 30.4252 10.477 29.9277 10.9745C29.4302 11.472 28.8179 11.7207 28.0717 11.7207C27.3255 11.7207 26.7132 11.472 26.2157 10.9745Z" fill="#060048"/>
<path d="M41.3411 5.9423V4.2968H34.1659V6.61199H38.0118L33.9746 12.2182V13.8637H41.5324V11.5485H37.2847L41.3411 5.9423Z" fill="#060048"/>
<path d="M50.8962 12.6774C51.872 11.7016 52.3695 10.4962 52.3695 9.08025C52.3695 7.66435 51.872 6.47805 50.8962 5.50223C49.9204 4.5264 48.7149 4.02892 47.299 4.02892C45.8831 4.02892 44.6777 4.5264 43.7019 5.50223C42.7261 6.47805 42.2477 7.66435 42.2477 9.08025C42.2477 10.4962 42.7261 11.7016 43.7019 12.6774C44.6777 13.6532 45.8831 14.1316 47.299 14.1316C48.7149 14.1316 49.9204 13.6532 50.8962 12.6774ZM45.4431 10.9745C44.9647 10.477 44.716 9.84561 44.716 9.08025C44.716 8.3149 44.9647 7.68348 45.4431 7.186C45.9405 6.68852 46.5528 6.43978 47.299 6.43978C48.0453 6.43978 48.6576 6.68852 49.155 7.186C49.6525 7.68348 49.9012 8.3149 49.9012 9.08025C49.9012 9.84561 49.6525 10.477 49.155 10.9745C48.6576 11.472 48.0453 11.7207 47.299 11.7207C46.5528 11.7207 45.9405 11.472 45.4431 10.9745Z" fill="#060048"/>
<path d="M61.6326 13.3295L59.718 10.0298H58.2922V13.3295H56.4183V3.82428H60.2204C61.0985 3.82428 61.8453 4.13207 62.4609 4.74764C63.0765 5.36322 63.3842 6.10553 63.3842 6.97457C63.3842 7.56299 63.2168 8.11067 62.8818 8.61762C62.5469 9.11551 62.1033 9.49119 61.5511 9.74466L63.6558 13.3295H61.6326ZM58.2922 5.57595V8.38677H60.2204C60.5734 8.38677 60.8767 8.25099 61.1302 7.97941C61.3836 7.69878 61.5104 7.36383 61.5104 6.97457C61.5104 6.58531 61.3836 6.25489 61.1302 5.98332C60.8767 5.71174 60.5734 5.57595 60.2204 5.57595H58.2922Z" fill="#566777"/>
<path d="M65.8131 10.6544C66.0484 11.5054 66.6866 11.9309 67.7277 11.9309C68.3976 11.9309 68.9045 11.7045 69.2485 11.2519L70.6607 12.0666C69.9908 13.0353 69.0041 13.5196 67.7005 13.5196C66.578 13.5196 65.6773 13.1801 64.9983 12.5012C64.3194 11.8222 63.9799 10.9668 63.9799 9.93476C63.9799 8.91182 64.3149 8.06088 64.9847 7.38194C65.6546 6.69394 66.5146 6.34995 67.5647 6.34995C68.5605 6.34995 69.3798 6.69394 70.0225 7.38194C70.6743 8.06993 71.0002 8.92088 71.0002 9.93476C71.0002 10.1611 70.9775 10.401 70.9323 10.6544H65.8131ZM65.7859 9.29656H69.2485C69.1489 8.83488 68.9407 8.49088 68.6239 8.26456C68.3161 8.03825 67.963 7.92509 67.5647 7.92509C67.094 7.92509 66.7047 8.0473 66.3969 8.29172C66.0892 8.52709 65.8855 8.86203 65.7859 9.29656Z" fill="#566777"/>
<path d="M76.1745 6.34995C77.0888 6.34995 77.8673 6.69847 78.51 7.39552C79.1618 8.08351 79.4877 8.92993 79.4877 9.93476C79.4877 10.9396 79.1618 11.7905 78.51 12.4876C77.8673 13.1756 77.0888 13.5196 76.1745 13.5196C75.2239 13.5196 74.4907 13.1892 73.9747 12.5283V16.0452H72.223V6.54005H73.9747V7.3412C74.4907 6.68037 75.2239 6.34995 76.1745 6.34995ZM74.5043 11.3198C74.8573 11.6729 75.3054 11.8494 75.8486 11.8494C76.3917 11.8494 76.8398 11.6729 77.1929 11.3198C77.555 10.9577 77.736 10.496 77.736 9.93476C77.736 9.3735 77.555 8.91635 77.1929 8.5633C76.8398 8.2012 76.3917 8.02014 75.8486 8.02014C75.3054 8.02014 74.8573 8.2012 74.5043 8.5633C74.1512 8.91635 73.9747 9.3735 73.9747 9.93476C73.9747 10.496 74.1512 10.9577 74.5043 11.3198Z" fill="#566777"/>
<path d="M86.5076 12.4876C85.8106 13.1756 84.9597 13.5196 83.9548 13.5196C82.95 13.5196 82.099 13.1756 81.402 12.4876C80.714 11.7905 80.37 10.9396 80.37 9.93476C80.37 8.92993 80.714 8.08351 81.402 7.39552C82.099 6.69847 82.95 6.34995 83.9548 6.34995C84.9597 6.34995 85.8106 6.69847 86.5076 7.39552C87.2047 8.08351 87.5532 8.92993 87.5532 9.93476C87.5532 10.9396 87.2047 11.7905 86.5076 12.4876ZM82.6377 11.2791C82.9907 11.6321 83.4298 11.8086 83.9548 11.8086C84.4799 11.8086 84.9189 11.6321 85.272 11.2791C85.625 10.926 85.8015 10.4779 85.8015 9.93476C85.8015 9.39161 85.625 8.94351 85.272 8.59046C84.9189 8.23741 84.4799 8.06088 83.9548 8.06088C83.4298 8.06088 82.9907 8.23741 82.6377 8.59046C82.2937 8.94351 82.1217 9.39161 82.1217 9.93476C82.1217 10.4779 82.2937 10.926 82.6377 11.2791Z" fill="#566777"/>
<path d="M90.5372 7.70783C90.7001 7.27331 90.9672 6.94742 91.3383 6.73015C91.7185 6.51289 92.1395 6.40426 92.6012 6.40426V8.35962C92.0671 8.29625 91.5873 8.40488 91.1618 8.68551C90.7454 8.96614 90.5372 9.43235 90.5372 10.0841V13.3295H88.7855V6.54005H90.5372V7.70783Z" fill="#566777"/>
<path d="M97.6948 8.22383H96.1604V11.0482C96.1604 11.2836 96.2192 11.4556 96.3369 11.5642C96.4546 11.6729 96.6266 11.7362 96.8529 11.7543C97.0792 11.7634 97.3599 11.7589 97.6948 11.7408V13.3295C96.4908 13.4653 95.6399 13.3521 95.142 12.99C94.6532 12.6279 94.4087 11.9806 94.4087 11.0482V8.22383H93.2274V6.54005H94.4087V5.16859L96.1604 4.63901V6.54005H97.6948V8.22383Z" fill="#566777"/>
<path d="M100.4 8.46825C100.4 8.6493 100.518 8.79867 100.753 8.91635C100.997 9.02498 101.292 9.12456 101.636 9.21508C101.98 9.29656 102.324 9.40519 102.668 9.54098C103.012 9.66771 103.301 9.88497 103.537 10.1928C103.781 10.5005 103.903 10.8853 103.903 11.347C103.903 12.044 103.641 12.5826 103.116 12.9628C102.6 13.334 101.952 13.5196 101.174 13.5196C99.7798 13.5196 98.8293 12.981 98.3223 11.9037L99.8431 11.0482C100.042 11.6366 100.486 11.9309 101.174 11.9309C101.798 11.9309 102.111 11.7362 102.111 11.347C102.111 11.1659 101.989 11.0211 101.744 10.9124C101.509 10.7948 101.219 10.6907 100.875 10.6001C100.531 10.5096 100.187 10.3964 99.8431 10.2607C99.4991 10.1249 99.2049 9.91213 98.9605 9.62245C98.7251 9.32372 98.6075 8.95256 98.6075 8.50898C98.6075 7.83909 98.8519 7.31404 99.3407 6.93384C99.8386 6.54458 100.454 6.34995 101.187 6.34995C101.74 6.34995 102.242 6.47668 102.695 6.73015C103.147 6.97457 103.505 7.32762 103.767 7.7893L102.274 8.60404C102.056 8.14236 101.694 7.91151 101.187 7.91151C100.961 7.91151 100.771 7.9613 100.617 8.06088C100.472 8.16046 100.4 8.29625 100.4 8.46825Z" fill="#566777"/>
</svg>
