<svg xmlns="http://www.w3.org/2000/svg"  viewBox="0 0 137 35">
    <g>
        <path d="M48.95 5.545c0 .197.011.391.032.583v5.506c-1.035-.923-2.26-1.684-3.672-2.283-1.413-.599-3.031-.898-4.855-.898-2.02 0-3.86.348-5.52 1.044-1.66.696-3.076 1.648-4.251 2.854a12.736 12.736 0 0 0-2.723 4.226c-.64 1.611-.961 3.332-.961 5.161 0 1.83.328 3.55.986 5.162a12.815 12.815 0 0 0 2.76 4.214c1.183 1.198 2.608 2.146 4.275 2.842C36.69 34.652 38.533 35 40.554 35c.952 0 1.856-.097 2.71-.291a13.39 13.39 0 0 0 2.416-.79c.755-.331 1.45-.72 2.082-1.166a12.425 12.425 0 0 0 1.713-1.445l.37 2.915h5.125V11.069l.03-.001V.02C54.86.011 54.719 0 54.575 0 51.47 0 48.95 2.482 48.95 5.545zm-.338 19.485a8 8 0 0 1-1.737 2.574 7.746 7.746 0 0 1-2.576 1.676 8.366 8.366 0 0 1-3.154.595 8.432 8.432 0 0 1-3.179-.595 7.879 7.879 0 0 1-2.587-1.676 7.861 7.861 0 0 1-1.75-2.587c-.427-1.003-.64-2.104-.64-3.303 0-1.198.209-2.291.628-3.279a7.78 7.78 0 0 1 1.737-2.562 7.892 7.892 0 0 1 2.588-1.676 8.438 8.438 0 0 1 3.178-.595 8.23 8.23 0 0 1 5.742 2.283 7.764 7.764 0 0 1 1.75 2.562c.427.996.64 2.085.64 3.267 0 1.215-.213 2.32-.64 3.316zM21.987 11.39c-.977-.737-2.174-1.32-3.594-1.748C16.973 9.214 15.368 9 13.577 9c-1.969 0-3.784.345-5.445 1.035-1.662.69-3.094 1.626-4.296 2.807a12.855 12.855 0 0 0-2.82 4.139C.34 18.559 0 20.244 0 22.036c0 1.776.339 3.449 1.016 5.019a12.75 12.75 0 0 0 2.82 4.115c1.202 1.174 2.634 2.105 4.296 2.795C9.793 34.655 11.6 35 13.552 35c1.13 0 2.19-.115 3.183-.345.992-.23 1.904-.531 2.735-.904a13.19 13.19 0 0 0 2.25-1.272 14.21 14.21 0 0 0 1.731-1.428l-3.267-3.425c-.404.365-.82.698-1.246.999-.428.301-.9.559-1.416.773a8.676 8.676 0 0 1-1.73.5c-.638.118-1.36.178-2.167.178A7.99 7.99 0 0 1 8.87 28.53a7.798 7.798 0 0 1-1.743-1.772 7.918 7.918 0 0 1-1.125-2.296h10.334c1.613 0 2.972-.19 4.078-.571 1.105-.38 1.996-.9 2.674-1.558a5.767 5.767 0 0 0 1.464-2.296A8.466 8.466 0 0 0 25 17.278a7.066 7.066 0 0 0-.775-3.27c-.516-1.008-1.262-1.88-2.238-2.617zm-3.618 7.636c-.694.484-1.703.726-3.025.726h-9.39a8.112 8.112 0 0 1 2.892-4.282 8.012 8.012 0 0 1 4.9-1.641c.952 0 1.783.1 2.493.297.71.199 1.299.456 1.767.773.467.318.818.666 1.053 1.047.233.38.35.761.35 1.142 0 .809-.347 1.455-1.04 1.938zM80.182 12.813c-1.198-1.175-2.625-2.105-4.282-2.788C74.243 9.342 72.43 9 70.464 9c-1.95 0-3.75.342-5.4 1.025-1.65.683-3.072 1.613-4.27 2.788A12.572 12.572 0 0 0 58 16.948c-.666 1.58-.999 3.269-.999 5.064 0 1.796.337 3.483 1.011 5.064a12.813 12.813 0 0 0 2.795 4.135c1.19 1.176 2.605 2.101 4.246 2.776C66.694 34.662 68.49 35 70.441 35c1.982 0 3.802-.338 5.459-1.013 1.657-.675 3.088-1.6 4.294-2.776A12.52 12.52 0 0 0 83 27.088c.666-1.573.999-3.265.999-5.076 0-1.795-.337-3.483-1.011-5.064a12.735 12.735 0 0 0-2.807-4.135zm-2.557 12.416a7.615 7.615 0 0 1-1.642 2.538 7.397 7.397 0 0 1-2.45 1.645 7.784 7.784 0 0 1-3.021.583 7.67 7.67 0 0 1-5.471-2.252 7.79 7.79 0 0 1-1.654-2.526c-.404-.977-.606-2.053-.606-3.229 0-1.175.202-2.248.606-3.217a7.828 7.828 0 0 1 1.654-2.514 7.403 7.403 0 0 1 2.45-1.645 7.79 7.79 0 0 1 3.02-.584c1.08 0 2.086.2 3.022.596a7.509 7.509 0 0 1 2.438 1.645c.69.7 1.237 1.537 1.642 2.514.404.977.606 2.046.606 3.205 0 1.176-.198 2.256-.594 3.241zM107.386 12.79V9H86.007v5.078h12.936c-2.75 3.264-9.192 10.05-11.94 13.315l.003.01A3.85 3.85 0 0 0 86 29.998c0 2.149 1.76 3.891 3.932 3.891.154 0 13.183.08 18.068.112v-5.102H93.837l13.55-16.108zM135.989 16.948a12.734 12.734 0 0 0-2.807-4.135c-1.198-1.175-2.625-2.105-4.282-2.788C127.243 9.342 125.43 9 123.464 9c-1.95 0-3.75.342-5.4 1.025-1.65.683-3.072 1.613-4.27 2.788A12.572 12.572 0 0 0 111 16.948c-.666 1.58-.999 3.269-.999 5.064 0 1.796.337 3.483 1.011 5.064a12.813 12.813 0 0 0 2.795 4.135c1.19 1.176 2.605 2.101 4.246 2.776 1.642.675 3.438 1.013 5.389 1.013 1.982 0 3.802-.338 5.459-1.013 1.657-.675 3.088-1.6 4.294-2.776A12.52 12.52 0 0 0 136 27.088c.666-1.573.999-3.265.999-5.076 0-1.795-.337-3.483-1.011-5.064zm-5.364 8.281a7.615 7.615 0 0 1-1.642 2.538 7.398 7.398 0 0 1-2.45 1.645 7.784 7.784 0 0 1-3.021.583 7.67 7.67 0 0 1-5.471-2.252 7.79 7.79 0 0 1-1.654-2.526c-.404-.977-.606-2.053-.606-3.229 0-1.175.202-2.248.606-3.217a7.828 7.828 0 0 1 1.654-2.514 7.403 7.403 0 0 1 2.45-1.645 7.79 7.79 0 0 1 3.02-.584c1.08 0 2.086.2 3.022.596a7.51 7.51 0 0 1 2.438 1.645c.69.699 1.237 1.537 1.642 2.514.404.977.606 2.046.606 3.205 0 1.176-.198 2.256-.594 3.241z"/>
    </g>
</svg>
