<svg width="144" height="44" viewBox="30 -14 152 66" fill="none" xmlns="http://www.w3.org/2000/svg"><path d="M16.895 19.893c.093-.589.155-1.116.155-1.643 0-2.325-.744-4.247-2.232-5.828-1.457-1.581-3.348-2.356-5.611-2.356-2.387 0-4.371.775-5.89 2.356-1.52 1.55-2.294 3.503-2.294 5.828 0 2.356.775 4.309 2.325 5.859 1.55 1.55 3.596 2.325 6.169 2.325 2.976 0 5.239-1.116 6.758-3.317l-3.224-1.86c-.775 1.023-1.953 1.55-3.472 1.55-2.387 0-3.844-.961-4.371-2.914h11.687Zm-11.75-3.1c.466-1.984 1.923-3.131 4.062-3.131 1.829 0 3.379 1.023 3.844 3.131H5.146ZM31.47 12.329c-1.178-1.519-2.852-2.263-5.022-2.263-2.078 0-3.875.806-5.363 2.387-1.457 1.581-2.201 3.503-2.201 5.797 0 2.294.744 4.247 2.2 5.828 1.489 1.581 3.287 2.356 5.364 2.356 2.17 0 3.843-.744 5.022-2.263V26h3.999V4.3h-4v8.029Zm-7.378 9.083c-.806-.837-1.21-1.891-1.21-3.162s.404-2.325 1.21-3.131c.837-.837 1.86-1.24 3.1-1.24s2.263.403 3.069 1.24c.806.806 1.209 1.86 1.209 3.131 0 1.271-.403 2.325-1.21 3.162-.805.806-1.828 1.209-3.068 1.209s-2.263-.403-3.1-1.209ZM52.332 24.078c1.58-1.581 2.387-3.534 2.387-5.828 0-2.294-.806-4.216-2.387-5.797-1.581-1.581-3.534-2.387-5.828-2.387-2.294 0-4.247.806-5.828 2.387-1.581 1.581-2.356 3.503-2.356 5.797 0 2.294.775 4.247 2.356 5.828 1.58 1.581 3.534 2.356 5.828 2.356 2.294 0 4.247-.775 5.828-2.356Zm-8.835-2.759c-.775-.806-1.178-1.829-1.178-3.069s.403-2.263 1.178-3.069c.806-.806 1.798-1.209 3.007-1.209s2.2.403 3.007 1.209c.806.806 1.209 1.829 1.209 3.069s-.403 2.263-1.21 3.069c-.805.806-1.797 1.209-3.006 1.209-1.21 0-2.201-.403-3.007-1.209ZM68.002 13.166V10.5H56.377v3.751h6.231l-6.54 9.083V26h12.244v-3.751H61.43l6.572-9.083ZM83.483 24.078c1.581-1.581 2.387-3.534 2.387-5.828 0-2.294-.806-4.216-2.387-5.797-1.58-1.581-3.534-2.387-5.828-2.387-2.294 0-4.247.806-5.828 2.387-1.58 1.581-2.356 3.503-2.356 5.797 0 2.294.775 4.247 2.356 5.828 1.581 1.581 3.534 2.356 5.828 2.356 2.294 0 4.247-.775 5.828-2.356Zm-8.835-2.759c-.775-.806-1.178-1.829-1.178-3.069s.403-2.263 1.178-3.069c.806-.806 1.798-1.209 3.007-1.209 1.21 0 2.201.403 3.007 1.209s1.21 1.829 1.21 3.069-.404 2.263-1.21 3.069c-.806.806-1.798 1.209-3.007 1.209s-2.2-.403-3.007-1.209Z" fill="#060048"/><path d="M95.041 26h3.036V10.6h-3.036V26ZM106.912 14.692c-1.496 0-2.596.506-3.278 1.54V15h-2.838v11h2.838v-5.94c0-1.826.946-2.728 2.42-2.728 1.32 0 2.178.792 2.178 2.266V26h2.838v-6.754c0-1.43-.396-2.53-1.188-3.344-.77-.814-1.76-1.21-2.97-1.21ZM116.111 18.124c0-.55.55-.902 1.276-.902.814 0 1.408.374 1.76 1.122l2.42-1.32c-.858-1.496-2.398-2.332-4.18-2.332-1.188 0-2.178.308-2.992.946-.792.616-1.188 1.474-1.188 2.552 0 2.288 2.046 2.97 3.674 3.388 1.122.286 2.002.616 2.002 1.21 0 .638-.506.946-1.518.946-1.122 0-1.826-.484-2.156-1.43l-2.464 1.386c.814 1.738 2.354 2.618 4.62 2.618 1.254 0 2.31-.308 3.146-.902.858-.616 1.276-1.496 1.276-2.618.022-2.354-2.068-3.124-3.674-3.454-1.122-.286-2.002-.616-2.002-1.21ZM125.02 13.68c.968 0 1.76-.792 1.76-1.738a1.78 1.78 0 0 0-1.76-1.76c-.946 0-1.738.814-1.738 1.76 0 .946.792 1.738 1.738 1.738ZM126.45 26V15h-2.838v11h2.838ZM137.474 16.364c-.836-1.122-2.002-1.672-3.52-1.672-1.54 0-2.838.55-3.894 1.65-1.056 1.1-1.584 2.42-1.584 3.982 0 1.562.528 2.904 1.562 4.004 1.056 1.078 2.354 1.628 3.916 1.628 1.518 0 2.684-.55 3.52-1.672v1.188c0 1.738-1.1 2.706-2.882 2.706-1.364 0-2.332-.506-2.882-1.54l-2.42 1.386c.968 1.76 2.838 2.684 5.214 2.684 1.584 0 2.926-.44 4.048-1.342 1.122-.902 1.694-2.2 1.694-3.894V15h-2.772v1.364Zm0 3.96c0 1.76-1.298 3.014-3.08 3.014s-3.08-1.254-3.08-3.014c0-.858.286-1.584.858-2.134.594-.572 1.32-.858 2.222-.858.902 0 1.628.286 2.2.858.594.55.88 1.276.88 2.134ZM148.935 14.692c-1.496 0-2.596.506-3.278 1.54V10.6h-2.838V26h2.838v-5.94c0-1.826.946-2.728 2.42-2.728 1.32 0 2.178.792 2.178 2.266V26h2.838v-6.754c0-1.43-.396-2.53-1.188-3.344-.77-.814-1.76-1.21-2.97-1.21ZM161.809 15h-2.486v-3.08l-2.838.858V15h-1.914v2.728h1.914v4.576c0 3.014 1.43 4.136 5.324 3.696v-2.574c-1.628.088-2.486.066-2.486-1.122v-4.576h2.486V15Z" fill="#FF8955"/></svg>
