<svg width="198" height="32" viewBox="0 0 199 33"  fill="none" xmlns="http://www.w3.org/2000/svg"><path d="M16.895 19.893c.093-.589.155-1.116.155-1.643 0-2.325-.744-4.247-2.232-5.828-1.457-1.581-3.348-2.356-5.611-2.356-2.387 0-4.371.775-5.89 2.356-1.52 1.55-2.294 3.503-2.294 5.828 0 2.356.775 4.309 2.325 5.859 1.55 1.55 3.596 2.325 6.169 2.325 2.976 0 5.239-1.116 6.758-3.317l-3.224-1.86c-.775 1.023-1.953 1.55-3.472 1.55-2.387 0-3.844-.961-4.371-2.914h11.687Zm-11.75-3.1c.466-1.984 1.923-3.131 4.062-3.131 1.829 0 3.379 1.023 3.844 3.131H5.146ZM31.47 12.329c-1.178-1.519-2.852-2.263-5.022-2.263-2.078 0-3.875.806-5.363 2.387-1.457 1.581-2.201 3.503-2.201 5.797 0 2.294.744 4.247 2.2 5.828 1.489 1.581 3.287 2.356 5.364 2.356 2.17 0 3.843-.744 5.022-2.263V26h3.999V4.3h-4v8.029Zm-7.378 9.083c-.806-.837-1.21-1.891-1.21-3.162s.404-2.325 1.21-3.131c.837-.837 1.86-1.24 3.1-1.24s2.263.403 3.069 1.24c.806.806 1.209 1.86 1.209 3.131 0 1.271-.403 2.325-1.21 3.162-.805.806-1.828 1.209-3.068 1.209s-2.263-.403-3.1-1.209ZM52.332 24.078c1.58-1.581 2.387-3.534 2.387-5.828 0-2.294-.806-4.216-2.387-5.797-1.581-1.581-3.534-2.387-5.828-2.387-2.294 0-4.247.806-5.828 2.387-1.581 1.581-2.356 3.503-2.356 5.797 0 2.294.775 4.247 2.356 5.828 1.58 1.581 3.534 2.356 5.828 2.356 2.294 0 4.247-.775 5.828-2.356Zm-8.835-2.759c-.775-.806-1.178-1.829-1.178-3.069s.403-2.263 1.178-3.069c.806-.806 1.798-1.209 3.007-1.209s2.2.403 3.007 1.209c.806.806 1.209 1.829 1.209 3.069s-.403 2.263-1.21 3.069c-.805.806-1.797 1.209-3.006 1.209-1.21 0-2.201-.403-3.007-1.209ZM68.002 13.166V10.5H56.377v3.751h6.231l-6.54 9.083V26h12.244v-3.751H61.43l6.572-9.083ZM83.483 24.078c1.581-1.581 2.387-3.534 2.387-5.828 0-2.294-.806-4.216-2.387-5.797-1.58-1.581-3.534-2.387-5.828-2.387-2.294 0-4.247.806-5.828 2.387-1.58 1.581-2.356 3.503-2.356 5.797 0 2.294.775 4.247 2.356 5.828 1.581 1.581 3.534 2.356 5.828 2.356 2.294 0 4.247-.775 5.828-2.356Zm-8.835-2.759c-.775-.806-1.178-1.829-1.178-3.069s.403-2.263 1.178-3.069c.806-.806 1.798-1.209 3.007-1.209 1.21 0 2.201.403 3.007 1.209s1.21 1.829 1.21 3.069-.404 2.263-1.21 3.069c-.806.806-1.798 1.209-3.007 1.209s-2.2-.403-3.007-1.209Z" fill="#060048"/><path d="M107.535 23.998c1.562-1.562 2.332-3.454 2.332-5.698s-.77-4.136-2.332-5.676c-1.562-1.562-3.454-2.332-5.676-2.332s-4.114.77-5.676 2.332c-1.54 1.54-2.31 3.432-2.31 5.676s.77 4.136 2.31 5.698c1.562 1.54 3.454 2.31 5.676 2.31s4.114-.77 5.676-2.31Zm-9.218-2.068c-.946-.946-1.43-2.156-1.43-3.63 0-1.474.484-2.684 1.43-3.63.946-.946 2.134-1.43 3.542-1.43s2.596.484 3.542 1.43c.946.946 1.43 2.156 1.43 3.63 0 1.474-.484 2.684-1.43 3.63-.946.946-2.134 1.408-3.542 1.408s-2.596-.462-3.542-1.408ZM117.105 26.308c2.134 0 4.004-1.122 4.972-2.86l-2.464-1.408c-.44.902-1.386 1.452-2.53 1.452-.858 0-1.562-.286-2.112-.836-.55-.572-.836-1.298-.836-2.156 0-1.76 1.254-3.014 2.948-3.014 1.122 0 2.068.572 2.508 1.474l2.442-1.43c-.902-1.738-2.794-2.838-4.928-2.838-1.65 0-3.036.55-4.158 1.672-1.1 1.122-1.65 2.486-1.65 4.136s.55 3.014 1.65 4.136c1.122 1.122 2.508 1.672 4.158 1.672ZM128.642 26.308c2.134 0 4.004-1.122 4.972-2.86l-2.464-1.408c-.44.902-1.386 1.452-2.53 1.452-.858 0-1.562-.286-2.112-.836-.55-.572-.836-1.298-.836-2.156 0-1.76 1.254-3.014 2.948-3.014 1.122 0 2.068.572 2.508 1.474l2.442-1.43c-.902-1.738-2.794-2.838-4.928-2.838-1.65 0-3.036.55-4.158 1.672-1.1 1.122-1.65 2.486-1.65 4.136s.55 3.014 1.65 4.136c1.122 1.122 2.508 1.672 4.158 1.672ZM142.461 20.94c0 1.826-.946 2.728-2.42 2.728-1.32 0-2.178-.792-2.178-2.266V15h-2.838v6.754c0 1.43.396 2.53 1.166 3.344.792.814 1.782 1.21 2.992 1.21 1.496 0 2.596-.506 3.278-1.54V26h2.838V15h-2.838v5.94ZM154.301 14.692c-1.54 0-2.728.528-3.564 1.606V15h-2.838v15.4h2.838v-5.698c.836 1.078 2.024 1.606 3.564 1.606 1.474 0 2.75-.55 3.784-1.672 1.056-1.122 1.584-2.508 1.584-4.136 0-1.628-.528-2.992-1.584-4.114-1.034-1.122-2.31-1.694-3.784-1.694Zm-2.706 8.052c-.572-.594-.858-1.342-.858-2.244 0-.902.286-1.65.858-2.222.572-.594 1.298-.88 2.178-.88.88 0 1.606.286 2.178.88.594.572.88 1.32.88 2.222 0 .902-.286 1.65-.88 2.244-.572.572-1.298.858-2.178.858-.88 0-1.606-.286-2.178-.858ZM163.078 13.68c.968 0 1.76-.792 1.76-1.738a1.78 1.78 0 0 0-1.76-1.76c-.946 0-1.738.814-1.738 1.76 0 .946.792 1.738 1.738 1.738Zm1.43 12.32V15h-2.838v11h2.838ZM177.798 21.666a7.43 7.43 0 0 0 .11-1.166c0-1.65-.528-3.014-1.584-4.136-1.034-1.122-2.376-1.672-3.982-1.672-1.694 0-3.102.55-4.18 1.672-1.078 1.1-1.628 2.486-1.628 4.136 0 1.672.55 3.058 1.65 4.158 1.1 1.1 2.552 1.65 4.378 1.65 2.112 0 3.718-.792 4.796-2.354l-2.288-1.32c-.55.726-1.386 1.1-2.464 1.1-1.694 0-2.728-.682-3.102-2.068h8.294Zm-8.338-2.2c.33-1.408 1.364-2.222 2.882-2.222 1.298 0 2.398.726 2.728 2.222h-5.61ZM182.727 15h-2.838v11h2.838v-5.258c0-1.056.33-1.804 1.012-2.266.682-.462 1.474-.638 2.332-.528V14.78c-1.496 0-2.816.704-3.344 2.112V15ZM190.005 18.124c0-.55.55-.902 1.276-.902.814 0 1.408.374 1.76 1.122l2.42-1.32c-.858-1.496-2.398-2.332-4.18-2.332-1.188 0-2.178.308-2.992.946-.792.616-1.188 1.474-1.188 2.552 0 2.288 2.046 2.97 3.674 3.388 1.122.286 2.002.616 2.002 1.21 0 .638-.506.946-1.518.946-1.122 0-1.826-.484-2.156-1.43l-2.464 1.386c.814 1.738 2.354 2.618 4.62 2.618 1.254 0 2.31-.308 3.146-.902.858-.616 1.276-1.496 1.276-2.618.022-2.354-2.068-3.124-3.674-3.454-1.122-.286-2.002-.616-2.002-1.21Z" fill="#7E0BC2"/></svg>
