<svg width="223" height="175" viewBox="0 0 223 175" fill="none" xmlns="http://www.w3.org/2000/svg">
    <path d="M205.115 0H17.8854C8.02726 0 0 8.04764 0 17.9309V157.069C0 166.961 8.02726 175 17.8854 175H205.115C214.981 175 223 166.952 223 157.069V17.9309C223 8.04764 214.981 0 205.115 0ZM45.0018 17.5399C45.0018 15.05 47.0107 13.036 49.4943 13.036H174.879C177.362 13.036 179.371 15.05 179.371 17.5399V18.0923C179.371 20.5822 177.362 22.5963 174.879 22.5963H49.5028C47.0192 22.5963 45.0103 20.5822 45.0103 18.0923V17.5399H45.0018ZM32.2446 13.036C34.8808 13.036 37.0169 15.1775 37.0169 17.8204C37.0169 20.4633 34.8808 22.6048 32.2446 22.6048C29.6084 22.6048 27.4724 20.4633 27.4724 17.8204C27.4724 15.1775 29.6084 13.036 32.2446 13.036ZM14.4864 13.036C17.1225 13.036 19.2586 15.1775 19.2586 17.8204C19.2586 20.4633 17.1225 22.6048 14.4864 22.6048C11.8502 22.6048 9.71408 20.4633 9.71408 17.8204C9.71408 15.1775 11.8502 13.036 14.4864 13.036ZM212.828 157.069C212.828 161.335 209.37 164.802 205.115 164.802H17.8854C13.6302 164.802 10.1718 161.335 10.1718 157.069V32.471H212.828V157.069Z" fill="#00B8D7"/>
    <path d="M155.202 83.0464V80.596C155.202 78.4768 155.647 76.6336 156.536 75.0662C157.425 73.4989 159.052 71.8322 161.417 70.0662C163.694 68.4106 165.191 67.064 165.907 66.0265C166.644 64.989 167.013 63.83 167.013 62.5497C167.013 61.1148 166.493 60.0221 165.451 59.2715C164.41 58.521 162.957 58.1457 161.091 58.1457C157.837 58.1457 154.128 59.2274 149.963 61.3907L146.417 54.1391C151.254 51.3797 156.384 50 161.807 50C166.276 50 169.822 51.0927 172.447 53.2781C175.093 55.4636 176.417 58.3775 176.417 62.0199C176.417 64.4481 175.874 66.5453 174.79 68.3113C173.705 70.0773 171.644 72.064 168.608 74.2715C166.525 75.8389 165.202 77.0309 164.638 77.8477C164.096 78.6645 163.824 79.7351 163.824 81.0596V83.0464H155.202ZM154.161 94.3709C154.161 92.5166 154.649 91.1148 155.625 90.1656C156.601 89.2163 158.022 88.7417 159.887 88.7417C161.688 88.7417 163.076 89.2274 164.052 90.1987C165.05 91.17 165.549 92.5607 165.549 94.3709C165.549 96.1148 165.05 97.4945 164.052 98.5099C163.054 99.5033 161.666 100 159.887 100C158.065 100 156.655 99.5143 155.657 98.543C154.66 97.5497 154.161 96.1589 154.161 94.3709Z" fill="#00B8D7"/>
    <path d="M58.2019 83.0464V80.596C58.2019 78.4768 58.6466 76.6336 59.5359 75.0662C60.4253 73.4989 62.0522 71.8322 64.4166 70.0662C66.6943 68.4106 68.191 67.064 68.9069 66.0265C69.6444 64.989 70.0132 63.83 70.0132 62.5497C70.0132 61.1148 69.4925 60.0221 68.4513 59.2715C67.4101 58.521 65.9568 58.1457 64.0912 58.1457C60.8375 58.1457 57.1281 59.2274 52.9633 61.3907L49.4166 54.1391C54.2539 51.3797 59.3841 50 64.8071 50C69.2756 50 72.8223 51.0927 75.447 53.2781C78.0934 55.4636 79.4166 58.3775 79.4166 62.0199C79.4166 64.4481 78.8743 66.5453 77.7897 68.3113C76.7051 70.0773 74.6444 72.064 71.6075 74.2715C69.5251 75.8389 68.2019 77.0309 67.6379 77.8477C67.0956 78.6645 66.8244 79.7351 66.8244 81.0596V83.0464H58.2019ZM57.1607 94.3709C57.1607 92.5166 57.6487 91.1148 58.6249 90.1656C59.601 89.2163 61.0218 88.7417 62.8873 88.7417C64.6878 88.7417 66.0761 89.2274 67.0522 90.1987C68.05 91.17 68.5489 92.5607 68.5489 94.3709C68.5489 96.1148 68.05 97.4945 67.0522 98.5099C66.0544 99.5033 64.6661 100 62.8873 100C61.0652 100 59.6552 99.5143 58.6574 98.543C57.6596 97.5497 57.1607 96.1589 57.1607 94.3709Z" fill="#00B8D7"/>
    <path d="M114.393 117.266C123.019 117.266 131.092 118.519 138.611 121.025C146.131 123.564 152.723 127.21 158.387 131.963L158.387 141.973C152.267 137.448 145.398 133.981 137.781 131.572C130.197 129.163 122.433 127.959 114.49 127.959C106.548 127.959 98.849 129.163 91.3945 131.572C83.9401 133.981 77.2018 137.415 71.1797 141.875L71.1797 131.963C76.7135 127.178 83.1751 123.532 90.5645 121.025C97.9538 118.519 105.896 117.266 114.393 117.266Z" fill="#00B8D7"/>
    </svg>
