<svg viewBox="0 0 24 24" fill="#4C4C4C" xmlns="http://www.w3.org/2000/svg"><path d="M15.8141 3.59067C15.9592 3.20534 16.5764 3.20535 16.7215 3.59067C17.2221 4.92024 18.1091 6.92999 19.2429 8.06538C20.3767 9.20077 22.3837 10.0891 23.7114 10.5904C24.0962 10.7356 24.0962 11.3538 23.7114 11.499C22.3837 12.0003 20.3767 12.8886 19.2429 14.024C18.1091 15.1594 17.2221 17.1691 16.7215 18.4987C16.5764 18.884 15.9592 18.884 15.8141 18.4987C15.3135 17.1691 14.4264 15.1594 13.2926 14.024C12.1588 12.8886 10.1519 12.0003 8.82416 11.499C8.43937 11.3538 8.43937 10.7356 8.82416 10.5904C10.1519 10.0891 12.1588 9.20077 13.2926 8.06538C14.4264 6.92999 15.3135 4.92024 15.8141 3.59067Z" /><path d="M3.11936 3.12385C3.18154 2.95872 3.44608 2.95872 3.50825 3.12385C3.72278 3.69367 4.10296 4.55499 4.58888 5.04159C5.07479 5.52818 5.93491 5.90889 6.50393 6.12372C6.66884 6.18598 6.66884 6.45089 6.50393 6.51315C5.93491 6.72798 5.07479 7.10869 4.58888 7.59528C4.10296 8.08188 3.72278 8.9432 3.50825 9.51302C3.44608 9.67816 3.18154 9.67816 3.11936 9.51302C2.90483 8.9432 2.52466 8.08188 2.03874 7.59528C1.55282 7.10869 0.692704 6.72798 0.123681 6.51315C-0.0412272 6.45089 -0.0412271 6.18598 0.123681 6.12372C0.692704 5.90889 1.55282 5.52818 2.03874 5.04159C2.52466 4.55499 2.90483 3.69367 3.11936 3.12385Z" /><path d="M6.43317 14.487C6.49534 14.3218 6.75989 14.3218 6.82206 14.487C7.03659 15.0568 7.41677 15.9181 7.90268 16.4047C8.3886 16.8913 9.24872 17.272 9.81774 17.4868C9.98265 17.5491 9.98265 17.814 9.81774 17.8763C9.24872 18.0911 8.3886 18.4718 7.90268 18.9584C7.41677 19.445 7.03659 20.3063 6.82206 20.8761C6.75989 21.0413 6.49534 21.0413 6.43317 20.8761C6.21864 20.3063 5.83846 19.445 5.35255 18.9584C4.86663 18.4718 4.00651 18.0911 3.43749 17.8763C3.27258 17.814 3.27258 17.5491 3.43749 17.4868C4.00651 17.272 4.86663 16.8913 5.35255 16.4047C5.83846 15.9181 6.21864 15.0568 6.43317 14.487Z" /></svg>
