<svg viewBox="0 0 24 24" fill="#4C4C4C" xmlns="http://www.w3.org/2000/svg"><path fill-rule="evenodd" clip-rule="evenodd" d="M1.5 3H3V1.5H1.5V3zM0 4.5h1.5v5.25H0v4.5h1.5v5.25H0V24h4.5v-1.5H12V24h4.5v-4.5H15v-5.25h1.5v-1.5h3v1.5H24v-4.5h-1.5V4.5H24V0h-4.5v1.5h-5.25V0h-4.5v1.5H4.5V0H0v4.5zm3 15h1.5V21H12v-1.5h1.5v-5.25H12v-4.5h4.5v1.5h3v-1.5H21V4.5h-1.5V3h-5.25v1.5h-4.5V3H4.5v1.5H3v5.25h1.5v4.5H3v5.25zm0-6.75H1.5v-1.5H3v1.5zm0 9.75H1.5V21H3v1.5zm10.5 0V21H15v1.5h-1.5zm9-19.5H21V1.5h1.5V3zM21 12.75h1.5v-1.5H21v1.5zm-7.5 0v-1.5H15v1.5h-1.5zM11.25 3h1.5V1.5h-1.5V3z"/></svg>