<svg viewBox="0 0 24 24" fill="#4C4C4C" xmlns="http://www.w3.org/2000/svg"><path fill-rule="evenodd" clip-rule="evenodd" d="M5.692 22.371S6.05 24 7.89 24h8.32c1.84 0 2.197-1.629 2.197-1.629L20.05 6.4h-16l1.642 15.971zm9.558-13.57a.8.8 0 111.6 0l-.8 12a.8.8 0 01-1.6 0l.8-12zm-4 0a.8.8 0 111.6 0v12a.8.8 0 11-1.6 0v-12zM8.05 8a.8.8 0 01.8.8l.8 12a.8.8 0 11-1.6 0l-.8-12a.8.8 0 01.8-.8zm11.52-4.799h-3.52V1.6c0-1.214-.393-1.6-1.6-1.6h-4.8c-1.108 0-1.6.536-1.6 1.6v1.601H4.53c-.707 0-1.28.537-1.28 1.2 0 .665.573 1.202 1.28 1.202h15.04c.707 0 1.28-.537 1.28-1.201s-.573-1.2-1.28-1.2zm-5.12 0h-4.8V1.6h4.8v1.601z"/></svg>