<svg viewBox="0 0 213 175" xmlns="http://www.w3.org/2000/svg" fill='#4C4C4C'>
  <path fill-rule="evenodd" clip-rule="evenodd" d="M106.011 43.1639C107.096 43.1639 108.181 43.1604 109.267 43.1568H109.267C112.04 43.1478 114.813 43.1387 117.586 43.1888C118.787 43.2087 119.094 42.7807 119.094 41.6509C119.097 40.72 119.172 39.7892 119.247 38.8583C119.308 38.102 119.369 37.3457 119.392 36.5893C119.511 32.4187 121.569 29.1189 124.143 26.1129C125.244 24.8238 125.457 23.6692 125.021 22.0268C124.103 18.5976 123.399 15.0988 122.759 11.605C122.61 10.7838 122.799 9.63414 123.295 8.99709C127.228 3.92059 132.033 0.421789 138.803 0.20778C142.989 0.0734022 146.783 0.924462 150.324 3.15912C152.204 4.34861 153.637 5.8417 154.272 7.99672C154.591 9.09275 154.895 10.1942 155.198 11.2956L155.198 11.2976C155.662 12.9813 156.126 14.6647 156.647 16.3281C156.86 17.005 157.411 17.6918 157.991 18.1149C158.925 18.7974 159.892 19.4313 160.859 20.0651C161.747 20.6467 162.635 21.2284 163.496 21.8476C167.384 24.6347 170.063 28.4222 172.155 32.6675L177.52 43.5426L177.522 43.5465C188.261 65.3178 199.002 87.0901 209.723 108.87C212.005 113.503 212.987 118.435 212.843 123.606C212.813 124.728 212.812 125.85 212.812 126.972C212.811 130.253 212.81 133.533 212.059 136.771C207.358 157.057 190.967 172.072 170.415 174.635C153.533 176.741 132.529 169.877 121.509 149.447C119.709 146.112 118.068 142.723 117.17 139.01C117.091 138.682 116.545 138.239 116.213 138.239C109.78 138.194 103.348 138.184 96.9154 138.254C96.5038 138.259 95.9285 138.866 95.7202 139.329C95.088 140.706 94.5114 142.117 93.935 143.528C92.8247 146.244 91.7152 148.959 90.2102 151.433C81.5063 165.712 68.6216 173.471 52.0173 174.77C31.996 176.337 13.4625 165.413 4.64948 147.302C1.56469 140.961 0.270268 134.362 0.0322132 127.344C-0.235598 119.441 1.14809 112.045 4.87265 105.072C5.47982 103.937 6.01352 102.762 6.54738 101.587C6.93363 100.736 7.31996 99.8859 7.73427 99.0502C18.4765 77.48 29.2286 55.9149 39.9906 34.3547C40.4011 33.5308 40.8469 32.7261 41.2928 31.9213L41.2929 31.9211C41.6657 31.248 42.0387 30.5749 42.391 29.8904C44.7914 25.2319 48.3771 21.763 52.9497 19.2994C53.8077 18.8365 54.2689 18.2443 54.507 17.3136C55.0575 15.1138 55.6774 12.9339 56.3023 10.749C58.1373 4.27893 61.3808 0.805015 70.2632 0.0684252C76.9684 -0.488994 82.404 2.40262 86.9469 7.16059C88.5835 8.87764 89.258 10.8485 88.5637 13.2773C87.7156 16.2236 87.0312 19.2198 86.3617 22.2109C86.2476 22.7136 86.4162 23.4253 86.7187 23.8434C87.3277 24.6843 87.9875 25.4879 88.6476 26.2918L88.648 26.2922L88.6481 26.2924C89.1169 26.8633 89.5857 27.4343 90.0366 28.019C91.6931 30.1641 92.4916 32.6028 92.556 35.3302C92.5966 36.9059 92.7019 38.4792 92.8072 40.0534C92.8562 40.7864 92.9053 41.5195 92.9478 42.2531C93.0024 43.2137 93.4934 43.4576 94.4357 43.4426C97.2554 43.399 100.075 43.4058 102.895 43.4127C103.934 43.4152 104.972 43.4177 106.011 43.4177V43.1639ZM124.5 125.717C124.034 146.491 140.574 166.105 164.439 166.065C186.617 166.03 204.566 148.013 204.238 125.612C203.916 103.962 186.811 86.1648 164.255 86.0902C141.987 86.0205 123.945 104.878 124.5 125.717ZM48.6548 166.075C71.4138 166.463 88.7968 146.296 88.5389 125.752C88.2562 103.296 69.5887 85.8463 47.9952 86.0603C26.8976 86.2743 8.79063 103.967 8.67161 125.901C8.54762 148.208 26.5902 166.155 48.6548 166.075ZM186.731 82.1833C186.631 81.9658 186.538 81.762 186.449 81.5676C186.276 81.1883 186.12 80.845 185.953 80.506C184.939 78.4372 183.932 76.3655 182.924 74.2937L182.918 74.2808C180.466 69.2396 178.015 64.1984 175.478 59.1997C172.327 52.9937 169.097 46.826 165.867 40.6581C164.745 38.5161 163.623 36.374 162.504 34.2303C160 29.4325 156.077 26.6752 150.78 25.4708C144.918 24.137 139.602 24.9681 134.677 28.3525C130.952 30.9106 128.468 34.1556 128.309 38.9783C128.102 45.3334 127.8 51.6862 127.498 58.0382C127.359 60.9786 127.219 63.9189 127.089 66.8592C126.855 72.1138 126.63 77.3706 126.405 82.6267L126.405 82.627L126.405 82.6273L126.405 82.6277C126.291 85.2869 126.177 87.9459 126.062 90.6043C126.023 91.5192 125.975 92.4341 125.922 93.4381C125.888 94.0945 125.851 94.7889 125.814 95.5464C143.212 76.9375 163.372 72.5827 186.731 82.1833ZM86.3876 94.0914L86.3877 94.0909C86.4129 93.7787 86.4304 93.5626 86.4212 93.3466C86.3806 92.3703 86.3407 91.3938 86.3008 90.4172C86.1554 86.8583 86.01 83.2984 85.831 79.7446L85.7061 77.3018C85.0388 64.2503 84.3715 51.199 83.634 38.1521L83.6335 38.1446C83.5146 36.0069 83.3941 33.8399 81.8833 31.9857C73.0653 21.1707 54.9335 23.3656 49.607 34.7927C44.4088 45.9393 38.7595 56.8767 33.1102 67.814L33.1095 67.8153L33.1083 67.8177L33.108 67.8183C30.6787 72.5214 28.2495 77.2246 25.8562 81.9444C25.793 82.0676 25.7596 82.2034 25.7297 82.3251C25.7173 82.3754 25.7055 82.4233 25.6925 82.4669C48.5606 72.941 68.8349 76.201 86.3369 94.7949C86.3538 94.5097 86.3722 94.2826 86.3876 94.0914ZM117.625 82.2398L117.625 82.2322L117.637 81.9415L117.649 81.6232C118.037 71.7443 118.423 61.8951 118.806 52.0776C117.125 52.0776 115.458 52.0778 113.804 52.078C107.246 52.0788 100.878 52.0796 94.5101 52.0677C93.4977 52.0677 93.5229 52.6747 93.5525 53.3874L93.5529 53.3965C93.6322 55.2621 93.7051 57.1284 93.778 58.9946L93.7781 58.9951L93.7781 58.9957L93.7781 58.9963C93.8877 61.7995 93.9972 64.6024 94.1282 67.4017C94.8225 82.1584 95.5317 96.92 96.2459 111.677C96.2724 112.198 96.332 112.717 96.3952 113.268L96.3952 113.269L96.3953 113.27C96.4268 113.544 96.4592 113.826 96.4889 114.12C103.174 114.125 109.711 114.125 116.346 114.125H116.376C116.79 103.545 117.203 92.9954 117.616 82.4793L117.623 82.2938L117.625 82.2398ZM115.275 129.245V122.745H97.6593V129.245H115.275ZM135.349 17.4167L135.35 17.4165L135.35 17.4165C137.032 16.9589 138.618 16.5273 140.221 16.1888C141.33 15.9557 142.458 15.8255 143.587 15.6951L143.587 15.6951C144.266 15.6167 144.946 15.5382 145.622 15.4373C146.55 15.2979 147.115 14.9346 146.912 13.7451C146.525 11.4358 145.141 10.1219 143.053 9.43506C139.428 8.24059 136.14 9.22105 133.075 11.182C132.614 11.4756 132.177 12.2918 132.232 12.8144C132.36 14.1007 132.616 15.3789 132.872 16.649L132.872 16.6496L132.872 16.6519C132.964 17.1058 133.055 17.5586 133.139 18.0104C133.899 17.8113 134.632 17.6118 135.348 17.417L135.349 17.4168L135.349 17.4167ZM71.8651 8.86271C71.5937 8.89831 71.3203 8.92765 71.0466 8.95703C70.4404 9.0221 69.8327 9.08732 69.2416 9.22105C66.2907 9.88299 65.026 11.2616 64.54 14.2378C64.4309 14.9097 64.3962 15.5468 65.3385 15.5219C69.0098 15.4224 72.5092 16.3372 76.0078 17.2517L76.0079 17.2517L76.008 17.2517L76.0081 17.2517C76.3612 17.344 76.7143 17.4363 77.0676 17.5276C77.9554 17.7565 78.4414 17.4778 78.6497 16.6367C78.8977 15.6513 79.1456 14.6609 79.3291 13.6605C79.5424 12.4909 79.0911 11.61 78.0942 10.9431C76.1997 9.67893 74.1515 8.94732 71.8651 8.86271ZM200.012 123.552C199.968 123.929 199.933 124.309 199.897 124.689L199.897 124.689L199.897 124.689L199.897 124.69C199.818 125.547 199.738 126.405 199.556 127.24C199.124 129.205 197.765 130.261 195.782 130.375C193.728 130.495 192.469 129.773 191.774 127.817C191.363 126.657 191.07 125.408 191.011 124.189C190.539 114.882 183.72 102.265 169.283 99.3985C168.599 99.2627 167.913 99.138 167.227 99.0132L167.226 99.0132L167.226 99.0132L167.226 99.0132L167.226 99.0131C166.126 98.8132 165.027 98.6134 163.937 98.3683C162.003 97.9353 160.51 96.0042 160.579 94.1578C160.644 92.3511 162.642 90.0269 164.537 90.1115C167.344 90.2309 170.235 90.4101 172.913 91.1815C187.841 95.4966 196.62 105.53 199.61 120.75C199.73 121.363 199.781 121.992 199.831 122.62L199.832 122.621L199.832 122.623C199.856 122.926 199.88 123.23 199.913 123.532C199.928 123.537 199.945 123.541 199.963 123.544C199.979 123.547 199.995 123.549 200.012 123.552ZM81.3221 130.276C83.5241 129.653 84.759 127.762 84.8135 125.015C84.777 124.691 84.7442 124.366 84.7114 124.041L84.7113 124.04L84.7113 124.04C84.6505 123.438 84.5898 122.837 84.5061 122.243C82.4727 108.193 75.0136 98.2687 62.0248 92.6C58.3746 91.0073 54.4914 90.2707 50.5585 89.8427C47.8903 89.5491 45.8272 91.2612 45.3659 93.9388C44.989 96.1236 46.0851 97.5321 48.8624 98.2886C49.8119 98.5456 50.7793 98.7309 51.7463 98.9161L51.7468 98.9162C52.1282 98.9892 52.5094 99.0623 52.8895 99.1397C61.3255 100.842 68.0158 105.097 72.2562 112.767C74.4582 116.743 75.7129 121.023 75.9113 125.607C76.0551 128.887 78.6192 131.037 81.3221 130.276ZM34.5 147C41.4036 147 47 141.404 47 134.5C47 127.596 41.4036 122 34.5 122C27.5964 122 22 127.596 22 134.5C22 141.404 27.5964 147 34.5 147ZM36 137C38.7614 137 41 134.761 41 132C41 129.239 38.7614 127 36 127C33.2386 127 31 129.239 31 132C31 134.761 33.2386 137 36 137ZM158 134.5C158 141.404 152.404 147 145.5 147C138.596 147 133 141.404 133 134.5C133 127.596 138.596 122 145.5 122C152.404 122 158 127.596 158 134.5ZM152 132C152 134.761 149.761 137 147 137C144.239 137 142 134.761 142 132C142 129.239 144.239 127 147 127C149.761 127 152 129.239 152 132Z"/>
</svg>
