<svg viewBox="0 0 20 20" fill="#4C4C4C" xmlns="http://www.w3.org/2000/svg">
<path d="M8 0H20V16H8V0Z" fill="white"/>
<path fill-rule="evenodd" clip-rule="evenodd" d="M19 1H9V15H19V1ZM8 0V16H20V0H8Z" fill="#4C4C4C"/>
<path d="M0 4H12V20H0V4Z" fill="white"/>
<path fill-rule="evenodd" clip-rule="evenodd" d="M11 5H1V19H11V5ZM0 4V20H12V4H0Z" fill="#4C4C4C"/>
<path fill-rule="evenodd" clip-rule="evenodd" d="M2.96284 4.01355L11.9707 13.0214L11.2636 13.7285L2.25574 4.72066L2.96284 4.01355ZM11.9907 7.38422L8.62739 4.02094L7.92029 4.72804L11.2836 8.09132L11.9907 7.38422ZM11.9863 10.2089L5.80073 4.02328L5.09363 4.73039L11.2792 10.916L11.9863 10.2089ZM11.9824 15.8613L0.72261 4.6015L0.0155029 5.30861L11.2753 16.5684L11.9824 15.8613ZM0.747512 7.45541L11.976 18.6839L11.2689 19.391L0.0404052 8.16252L0.747512 7.45541ZM9.72993 19.266L0.745559 10.2816L0.0384521 10.9887L9.02283 19.9731L9.72993 19.266ZM0.743606 13.1078L6.90571 19.2699L6.19861 19.977L0.036499 13.8149L0.743606 13.1078ZM4.07954 19.2719L0.749465 15.9419L0.0423584 16.649L3.37244 19.9791L4.07954 19.2719Z" fill="#4C4C4C"/>
</svg>
