<svg viewBox="0 0 24 24" fill="#4C4C4C" xmlns="http://www.w3.org/2000/svg"><path fill-rule="evenodd" clip-rule="evenodd" d="M16 4h-1V1h-5v14h2v1H4v-1h2V1H1v3H0V0h16v4ZM8.291 1H7v1.292L8.291 1ZM7 3.708v1.583l2-2V1.709l-2 2Zm0 3 2-2v1.583l-2 2V6.708Zm0 3v1.583l2-2V7.708l-2 2Zm0 3 2-2v1.583l-2 2V12.71ZM7.708 15H9v-1.291L7.708 15Z"/><circle cx="16" cy="16" r="8" fill="#8ED961"/><path d="M14.095 15.57h-.98v-1.89c0-.23.006-.44.015-.63a2.11 2.11 0 0 1-.224.23l-.405.334-.501-.616L13.226 12h.869v3.57ZM19.63 16.62h-2.59v-.634l.87-.882c.25-.26.412-.437.489-.532a1.15 1.15 0 0 0 .159-.246.516.516 0 0 0 .046-.215.28.28 0 0 0-.09-.22.369.369 0 0 0-.254-.08.693.693 0 0 0-.342.097 2.406 2.406 0 0 0-.388.283l-.53-.62c.184-.164.338-.281.464-.351a1.63 1.63 0 0 1 .408-.164c.148-.037.314-.056.498-.056.23 0 .437.04.617.122a.956.956 0 0 1 .423.35c.1.149.151.317.151.505a1.34 1.34 0 0 1-.215.74c-.073.113-.17.234-.293.36-.12.128-.378.368-.774.723v.025h1.35v.796ZM16.449 16.825a.855.855 0 0 1-.203.572c-.135.157-.33.272-.586.344v.014c.596.075.894.357.894.845a.915.915 0 0 1-.396.784c-.262.19-.626.285-1.094.285-.192 0-.37-.013-.534-.041a2.79 2.79 0 0 1-.53-.151v-.801c.156.08.315.139.476.178.163.037.313.056.45.056.21 0 .365-.03.46-.088.098-.06.147-.153.147-.28 0-.098-.025-.173-.075-.225a.476.476 0 0 0-.245-.12 1.893 1.893 0 0 0-.44-.041h-.219v-.725h.225c.49 0 .735-.126.735-.376a.23.23 0 0 0-.11-.21.537.537 0 0 0-.29-.069c-.229 0-.465.077-.709.23l-.4-.645c.189-.13.382-.223.579-.278.198-.055.425-.083.68-.083.37 0 .66.073.87.22.21.146.315.348.315.605Z" fill="#fff"/></svg>