<svg viewBox="0 0 32 32" fill="#4c4c4c" xmlns="http://www.w3.org/2000/svg"><path d="M2 5H0V0h5v2H2v3M32 32h-5v-2h3v-3h2v5M5 32H0v-5h2v3h3v2M32 5h-2V2h-3V0h5v5M15.056 5.04l-.169-1.993c.707-.06 1.435-.061 2.142-.007l-.155 1.994a11.26 11.26 0 00-1.818.006zm5.328.868a10.929 10.929 0 00-1.718-.583l.482-1.941c.695.173 1.38.405 2.035.691l-.799 1.833zm-8.832.028l-.81-1.828c.654-.29 1.337-.527 2.029-.703l.495 1.937c-.585.15-1.162.349-1.714.594zm11.869 1.945a11.093 11.093 0 00-1.437-1.112l1.089-1.678c.598.389 1.169.83 1.698 1.313l-1.35 1.477zm-14.892.045L7.17 6.458a13.137 13.137 0 011.689-1.323l1.1 1.67c-.504.333-.985.71-1.43 1.121zm17.127 2.802a10.998 10.998 0 00-1-1.516l1.573-1.235c.442.563.839 1.165 1.182 1.791l-1.755.96zm-19.346.06l-1.76-.949A12.99 12.99 0 015.721 8.04l1.58 1.226c-.37.477-.704.989-.991 1.522zm20.534 3.354a10.996 10.996 0 00-.451-1.757l1.888-.657c.236.676.415 1.375.534 2.079l-1.971.335zm-21.7.07l-1.973-.322c.115-.706.29-1.406.52-2.082l1.893.643a11.09 11.09 0 00-.44 1.761zm23.681 3.926l-1.973-.328c.098-.592.148-1.202.148-1.81l2-.051V16c0 .718-.059 1.437-.175 2.138zm-25.645.027c-.118-.7-.179-1.419-.18-2.137l2-.004c.001.608.053 1.217.152 1.811l-1.972.33zm24.256 4.021l-1.758-.952c.288-.533.534-1.092.73-1.664l1.891.65a12.912 12.912 0 01-.863 1.966zm-22.86.022a13.044 13.044 0 01-.867-1.962l1.891-.654c.197.571.443 1.129.732 1.66l-1.756.956zM24.81 25.56l-1.356-1.47c.444-.41.857-.86 1.23-1.338l1.577 1.23a13.222 13.222 0 01-1.451 1.578zm-17.601.017a13.229 13.229 0 01-1.455-1.575l1.575-1.232c.373.476.788.925 1.233 1.334l-1.353 1.473zm14.023 2.327l-.805-1.831a10.838 10.838 0 001.594-.867l1.097 1.673a12.99 12.99 0 01-1.886 1.025zm-10.44.011a13.05 13.05 0 01-1.889-1.021l1.093-1.675c.508.331 1.046.622 1.598.863l-.802 1.833zm6.294 1.04l-.166-1.993c.605-.05 1.208-.151 1.792-.298l.49 1.938c-.689.175-1.401.293-2.116.353zm-2.144.002a12.96 12.96 0 01-2.118-.348l.487-1.94c.586.147 1.189.246 1.791.295l-.16 1.993z"/></svg>