<svg xmlns="http://www.w3.org/2000/svg" fill="#4C4C4C" viewBox="0 0 24 24"><path d="M23.699 7.187 16.836.3s-.07-.05-.11-.07a.728.728 0 0 0-.532-.23H9.763a2.716 2.716 0 0 0-2.72 2.709v.21H2.72A2.716 2.716 0 0 0 0 5.628V21.29A2.716 2.716 0 0 0 2.72 24h11.798a2.415 2.415 0 0 0 2.418-2.409v-.51h4.646A2.415 2.415 0 0 0 24 18.672V7.907c0-.27-.11-.53-.301-.72Zm-6.773-4.718 4.566 4.578h-4.455c-.06 0-.11-.05-.11-.11V2.47Zm-1.464 19.112a.95.95 0 0 1-.954.95H2.72c-.692 0-1.254-.56-1.254-1.25V5.618c0-.69.562-1.24 1.254-1.24h4.355v8.886h-2.71a.682.682 0 0 0-.682.68c0 .37.311.68.683.68h2.709v1.64s-.05-.02-.08-.02h-2.62a.682.682 0 0 0-.682.679c0 .37.311.68.683.68h2.618s.06-.01.08-.02v.77c0 .31.06.59.161.869h-2.86a.682.682 0 0 0-.682.68c0 .37.311.68.683.68h3.762s.07-.02.1-.02c.442.31.974.49 1.556.49h5.689v.509l-.02.02Zm6.11-1.97h-11.8c-.692 0-1.254-.559-1.254-1.249V2.71c0-.69.562-1.24 1.255-1.24h5.688v5.478c0 .87.713 1.57 1.576 1.57h5.488v10.155a.95.95 0 0 1-.953.95v-.01Z"/><path d="M19.645 10.346h-8.217a.682.682 0 0 0-.682.68c0 .37.31.68.682.68h8.217c.382 0 .683-.31.683-.68 0-.37-.311-.68-.683-.68ZM19.645 13.334h-8.217a.682.682 0 0 0-.682.68c0 .37.31.68.682.68h8.217c.382 0 .683-.31.683-.68 0-.37-.311-.68-.683-.68ZM19.645 16.323h-8.217a.682.682 0 0 0-.682.68c0 .37.31.68.682.68h8.217c.382 0 .683-.31.683-.68 0-.37-.311-.68-.683-.68Z"/></svg>