<svg viewBox="0 0 24 24" fill="#4C4C4C" xmlns="http://www.w3.org/2000/svg"><path fill-rule="evenodd" clip-rule="evenodd" d="M1.5 0v1.5H0V0h1.5zM1 22.5H0V24h1.5v-1.5H1zm21.5.5v-.5H24V24h-1.5v-1zm0-23v1.5H24V0h-1.5zM3 0v1.5h2V0H3zm4 0v1.5h2V0H7zm4 0v1.5h2V0h-2zm4 0v1.5h2V0h-2zm4 0v1.5h2V0h-2zm5 3h-1.5v2H24V3zm0 4h-1.5v2H24V7zm0 4h-1.5v2H24v-2zm0 4h-1.5v2H24v-2zm0 4h-1.5v2H24v-2zm-3 5v-1.5h-2V24h2zm-4 0v-1.5h-2V24h2zm-4 0v-1.5h-2V24h2zm-4 0v-1.5H7V24h2zm-4 0v-1.5H3V24h2zm-5-3h1.5v-2H0v2zm0-4h1.5v-2H0v2zm0-4h1.5v-2H0v2zm0-4h1.5V7H0v2zm0-4h1.5V3H0v2z"/></svg>