<svg viewBox="0 0 24 24" fill="4C4C4C" xmlns="http://www.w3.org/2000/svg"><path fill-rule="evenodd" clip-rule="evenodd" d="M0 4.5h4.5V0H0v4.5ZM1.5 3H3V1.5H1.5V3ZM19.5 4.5H24V0h-4.5v4.5ZM21 3h1.5V1.5H21V3ZM0 24h4.5v-4.5H0V24Zm1.5-1.5H3V21H1.5v1.5ZM19.5 24H24v-4.5h-4.5V24Zm1.5-1.5h1.5V21H21v1.5ZM21.953 12.98l-1.493-.145a8.623 8.623 0 0 0 0-1.67l1.492-.145a10.12 10.12 0 0 1 0 1.96Zm-.381-3.884-1.436.435a8.434 8.434 0 0 0-.637-1.538l1.322-.708c.307.573.56 1.179.75 1.811Zm-1.842-3.44-1.159.952a8.561 8.561 0 0 0-1.18-1.18l.953-1.158c.506.415.97.88 1.386 1.386Zm-3.015-2.477-.708 1.322a8.44 8.44 0 0 0-1.538-.637l.435-1.436a9.936 9.936 0 0 1 1.81.751ZM12.98 2.047l-.145 1.493a8.623 8.623 0 0 0-1.67 0l-.146-1.493a10.126 10.126 0 0 1 1.961 0Zm-3.884.381.435 1.436a8.439 8.439 0 0 0-1.538.637L7.285 3.18a9.938 9.938 0 0 1 1.811-.75ZM5.656 4.27l.952 1.159c-.43.353-.826.749-1.18 1.18L4.27 5.655c.415-.506.88-.97 1.386-1.386ZM3.179 7.285l1.322.708c-.26.487-.475 1.001-.637 1.538l-1.436-.435a9.938 9.938 0 0 1 .751-1.81ZM2.047 11.02a10.123 10.123 0 0 0 0 1.96l1.493-.145a8.623 8.623 0 0 1 0-1.67l-1.493-.145Zm.381 3.884 1.436-.435c.162.537.377 1.051.637 1.538l-1.322.708a9.936 9.936 0 0 1-.75-1.811Zm1.842 3.44 1.159-.952c.353.43.749.826 1.18 1.18l-.953 1.158c-.506-.415-.97-.88-1.386-1.386Zm3.015 2.477.708-1.322c.487.26 1.001.475 1.538.637l-.435 1.436a9.937 9.937 0 0 1-1.81-.751Zm3.735 1.131.145-1.492a8.623 8.623 0 0 0 1.67 0l.145 1.492a10.12 10.12 0 0 1-1.96 0Zm3.884-.38-.435-1.436a8.436 8.436 0 0 0 1.538-.637l.708 1.322a9.935 9.935 0 0 1-1.811.75Zm3.44-1.842-.952-1.159c.43-.353.826-.749 1.18-1.18l1.158.953c-.415.506-.88.97-1.386 1.386Zm2.477-3.015c.307-.573.56-1.179.75-1.811l-1.435-.435a8.436 8.436 0 0 1-.637 1.538l1.322.708Z"/></svg>