<svg width="24" height="24" viewBox="0 0 24 24" fill="#4C4C4C" xmlns="http://www.w3.org/2000/svg">
<path fill-rule="evenodd" clip-rule="evenodd" d="M19.5 4.5H24V0H19.5V4.5ZM21 3H22.5V1.5H21V3ZM4.65 1.5V2.25V3H6.75V2.25V1.5H4.65ZM8.85 1.5V2.25V3H10.95V2.25V1.5H8.85ZM13.05 1.5V2.25V3H15.15V2.25V1.5H13.05ZM17.25 1.5V2.25V3H19.35V2.25V1.5H17.25ZM22.5 4.65H21.75H21V6.75H21.75H22.5V4.65ZM22.5 8.85H21.75H21V10.95H21.75H22.5V8.85ZM22.5 13.05H21.75H21V15.15H21.75H22.5V13.05ZM22.5 17.25H21.75H21V19.35H21.75H22.5V17.25ZM19.35 22.5V21.75V21H17.25V21.75V22.5H19.35ZM15.15 22.5V21.75V21H13.05V21.75V22.5H15.15ZM10.95 22.5V21.75V21H8.85V21.75V22.5H10.95ZM6.75 22.5V21.75V21H4.65V21.75V22.5H6.75ZM1.5 19.35H2.25H3V17.25H2.25H1.5V19.35ZM1.5 15.15H2.25H3V13.05H2.25H1.5V15.15ZM1.5 10.95H2.25H3V8.85H2.25H1.5V10.95ZM1.5 6.75H2.25H3V4.65H2.25H1.5V6.75ZM0 24H4.5V19.5H0V24ZM1.5 22.5H3V21H1.5V22.5ZM4.5 4.5H0V0H4.5V4.5ZM3 3H1.5V1.5H3V3ZM24 24H19.5V19.5H24V24ZM22.5 22.5H21V21H22.5V22.5Z" />
</svg>
