<svg width="24" height="24" viewBox="0 0 24 24" fill="#4C4C4C" xmlns="http://www.w3.org/2000/svg">
<path fill-rule="evenodd" clip-rule="evenodd" d="M24 5.25H18.75V4.17253L17.7324 3.19204L18.75 2.13584V0H24V5.25ZM22.5 3.75H20.25V1.5H22.5V3.75ZM5.25 9H0V3.75H5.25V6.50783L6.43233 7.21911L5.65908 8.50445L5.25 8.25835V9ZM3.75 7.5H1.5V5.25H3.75V7.5ZM9.75 10.5H12V8.25H9.75V10.5ZM12 12H13.5V9.74663L14.6059 8.59879L13.5257 7.55803L13.5 7.58475V6.75H8.25V8.31262L8.16405 8.2609L7.3908 9.54624L8.25 10.0631V12H12ZM12 12L21.8039 15.4602L19.6891 17.5749L24 21.8858L21.8858 24L17.5749 19.6891L15.4602 21.8039L12 12ZM21.7466 22.5L17.4716 18.2249L15.7686 19.9278L13.5 13.5L19.9278 15.7686L18.2249 17.4716L22.5 21.7466L21.7466 22.5ZM17.4103 5.68813L16.0081 7.14346L14.9279 6.1027L16.3302 4.64737L17.4103 5.68813Z" />
</svg>
