<svg width="24" height="24" viewBox="0 0 24 24" fill="#4C4C4C" xmlns="http://www.w3.org/2000/svg">
<path fill-rule="evenodd" clip-rule="evenodd" d="M3.85982 4.5H4.5V3.06153L4.8461 3.14283L5.18912 1.68258L4.5 1.5207V0H0V4.5H1.9612L3.05332 5.90745L4.23839 4.98788L3.85982 4.5ZM1.5 3H3V1.5H1.5V3ZM19.5 8.25H20.9728L20.7961 8.96188L22.2519 9.32325L22.5183 8.25H24V3.75H19.5V5.04432L18.9608 4.91765L18.6178 6.37791L19.5 6.58515V8.25ZM21 6.75H22.5V5.25H21V6.75ZM21 24H16.5V19.5H18.1803L18.3618 18.7689L19.8176 19.1303L19.7258 19.5H21V24ZM19.5 22.5H18V21H19.5V22.5ZM7.5 14.175H9V12.675H7.5V14.175ZM6 15.675H10.5V11.175H9.03935L7.95516 9.77779L6.77009 10.6974L7.14074 11.175H6V15.675ZM4.29224 7.50408L5.53117 9.10072L6.71624 8.18115L5.47732 6.58452L4.29224 7.50408ZM21.7651 11.2847L21.2782 13.2461L19.8224 12.8847L20.3092 10.9233L21.7651 11.2847ZM20.7913 15.2075L20.3045 17.1689L18.8486 16.8075L19.3355 14.8461L20.7913 15.2075ZM14.683 5.4536L16.6504 5.91575L16.9934 4.4555L15.026 3.99335L14.683 5.4536ZM10.7482 4.52929L12.7156 4.99144L13.0586 3.53119L11.0913 3.06904L10.7482 4.52929ZM6.81348 3.60498L8.78086 4.06714L9.12388 2.60688L7.1565 2.14473L6.81348 3.60498Z" />
</svg>
