<svg viewBox="0 0 20 20" fill="4C4C4C" xmlns="http://www.w3.org/2000/svg"><path fill-rule="evenodd" clip-rule="evenodd" d="m19.953 10.98-1.493-.145a8.623 8.623 0 0 0 0-1.67l1.492-.146a10.12 10.12 0 0 1 0 1.961Zm-.381-3.884-1.436.435a8.434 8.434 0 0 0-.637-1.538l1.322-.708c.307.573.56 1.179.75 1.811Zm-1.842-3.44-1.159.952a8.561 8.561 0 0 0-1.18-1.18l.953-1.158c.506.415.97.88 1.386 1.386Zm-3.015-2.477-.708 1.322a8.44 8.44 0 0 0-1.538-.637l.435-1.436a9.936 9.936 0 0 1 1.81.751ZM10.98.047l-.145 1.493a8.623 8.623 0 0 0-1.67 0L9.019.047a10.121 10.121 0 0 1 1.961 0ZM7.096.428l.435 1.436a8.439 8.439 0 0 0-1.538.637L5.285 1.18a9.938 9.938 0 0 1 1.811-.75ZM3.656 2.27l.952 1.159c-.43.353-.826.749-1.18 1.18L2.27 3.655c.415-.506.88-.97 1.386-1.386ZM1.179 5.285l1.322.708c-.26.487-.475 1.001-.637 1.538L.428 7.096a9.938 9.938 0 0 1 .751-1.81ZM.047 9.02a10.121 10.121 0 0 0 0 1.961l1.493-.145a8.623 8.623 0 0 1 0-1.67L.047 9.019Zm.381 3.885 1.436-.435c.162.537.377 1.051.637 1.538l-1.322.708a9.936 9.936 0 0 1-.75-1.811Zm1.842 3.44 1.159-.952c.353.43.749.826 1.18 1.18l-.953 1.158c-.506-.415-.97-.88-1.386-1.386Zm3.015 2.477.708-1.322c.487.26 1.001.475 1.538.637l-.435 1.436a9.937 9.937 0 0 1-1.81-.751Zm3.734 1.131.146-1.492a8.622 8.622 0 0 0 1.67 0l.145 1.492a10.12 10.12 0 0 1-1.96 0Zm3.885-.38-.435-1.436a8.436 8.436 0 0 0 1.538-.637l.708 1.322a9.935 9.935 0 0 1-1.811.75Zm3.44-1.842-.952-1.159c.43-.353.826-.749 1.18-1.18l1.158.953c-.415.506-.88.97-1.386 1.386Zm2.477-3.015c.307-.573.56-1.179.75-1.811l-1.435-.435a8.436 8.436 0 0 1-.637 1.538l1.322.708Z"/></svg>
