<svg viewBox="0 0 24 24" fill="#4C4C4C" xmlns="http://www.w3.org/2000/svg"><path fill-rule="evenodd" clip-rule="evenodd" d="M24 12v-.5h-.01C23.727 5.122 18.445 0 12.02 0 7.6 0 3.57 2.466 1.498 6.283V4.5H0V9h4.494V7.5H2.56c1.722-3.63 5.403-6 9.46-6 5.694 0 10.363 4.6 10.48 10.286V12c0 5.79-4.735 10.5-10.517 10.5-5.782 0-10.485-4.71-10.485-10.5H0c0 6.615 5.376 12 11.983 12S24 18.615 24 12zM5.992 7.5h11.983v-.75H5.992v.75zm7.34-.75h.898v-.9a1.35 1.35 0 00-1.348-1.35h-1.798a1.35 1.35 0 00-1.348 1.35v.9h.899v-.9a.45.45 0 01.45-.45h1.797a.45.45 0 01.45.45v.9zM6.74 18h.086c.206.873.761 1.5 1.412 1.5v-1.125c-.413 0-.749-.505-.749-1.125v-9H6.74V18zm10.486-.75v-9h-.75v9.013c-.004.614-.338 1.112-.748 1.112V19.5c.651 0 1.206-.627 1.412-1.5h.086v-.75zM8.987 19.5h6.74v-.75h-6.74v.75zm.75-2.25h-.75v-9h.75v9zm2.246 0h.749v-9h-.749v9zm2.996 0h-.749v-9h.749v9z"/></svg>