<svg viewBox="0 0 24 24" fill="#4C4C4C" xmlns="http://www.w3.org/2000/svg"><path fill-rule="evenodd" clip-rule="evenodd" d="M14.5 2.5h-2.825L14.5 5.325V2.5zm-7.068 0h2.828l4.24 4.24v1.563l-1.731-.466L7.432 2.5zm3.401 4.816L6.018 2.5H3.189l6.054 6.054.029-.106L9.662 7l1.171.316zm-1.89 2.352L2.5 3.225v2.828l9.672 9.672.41-1.524.19-.704-1.093-1.093-.155-.042-1.635-.44-1.448-.39.39-1.449.112-.415zm2.929 7.171L2.5 7.468v2.828L9.704 17.5h1.99l.178-.66zM11.29 19H1V1h15v7.707l5.808 1.565 1.449.39-.39 1.448-.44 1.635-.39 1.449-1.45-.39-1.634-.441-1.449-.39-.39 1.448-1.66 6.166-.39 1.449-1.45-.39-1.634-.44-1.448-.39.39-1.45L11.29 19zM2.5 14.539V11.71l5.79 5.79H5.46L2.5 14.539zm0 1.414V17.5h1.547L2.5 15.953zm10.863-4.65l-3.083-.83.44-1.635 10.698 2.882-.44 1.635-3.084-.83-1.448-.39-.39 1.448-2.051 7.614-1.635-.44 2.051-7.615.39-1.448-1.448-.39z"/></svg>