<svg viewBox="0 0 24 24" fill="#4C4C4C" xmlns="http://www.w3.org/2000/svg"><path fill-rule="evenodd" clip-rule="evenodd" d="M17.25 1.5h-15a.752.752 0 00-.75.75v15c0 .413.337.75.75.75H4.5V6.75A2.257 2.257 0 016.75 4.5H18V2.25a.752.752 0 00-.75-.75zm2.25 3h2.25A2.257 2.257 0 0124 6.75v15A2.257 2.257 0 0121.75 24h-15a2.257 2.257 0 01-2.25-2.25V19.5H2.25A2.257 2.257 0 010 17.25v-15A2.257 2.257 0 012.25 0h15a2.257 2.257 0 012.25 2.25V4.5zM6.75 6a.752.752 0 00-.75.75v15c0 .413.338.75.75.75h15c.413 0 .75-.337.75-.75v-15a.752.752 0 00-.75-.75h-15zm6.75 12H15v-3h3v-1.5h-3v-3h-1.5v3h-3V15h3v3z"/></svg>