<svg viewBox="0 0 223 175" xmlns="http://www.w3.org/2000/svg">
<path d="M205.115 0H17.8854C8.02726 0 0 8.04764 0 17.9309V157.069C0 166.961 8.02726 175 17.8854 175H205.115C214.981 175 223 166.952 223 157.069V17.9309C223 8.04764 214.981 0 205.115 0ZM45.0018 17.5399C45.0018 15.05 47.0107 13.036 49.4943 13.036H174.879C177.362 13.036 179.371 15.05 179.371 17.5399V18.0923C179.371 20.5822 177.362 22.5963 174.879 22.5963H49.5028C47.0192 22.5963 45.0103 20.5822 45.0103 18.0923V17.5399H45.0018ZM32.2446 13.036C34.8808 13.036 37.0169 15.1775 37.0169 17.8204C37.0169 20.4633 34.8808 22.6048 32.2446 22.6048C29.6084 22.6048 27.4724 20.4633 27.4724 17.8204C27.4724 15.1775 29.6084 13.036 32.2446 13.036ZM14.4864 13.036C17.1225 13.036 19.2586 15.1775 19.2586 17.8204C19.2586 20.4633 17.1225 22.6048 14.4864 22.6048C11.8502 22.6048 9.71408 20.4633 9.71408 17.8204C9.71408 15.1775 11.8502 13.036 14.4864 13.036ZM212.828 157.069C212.828 161.335 209.37 164.802 205.115 164.802H17.8854C13.6302 164.802 10.1718 161.335 10.1718 157.069V32.471H212.828V157.069Z"/>
<path fill-rule="evenodd" clip-rule="evenodd" d="M146.151 97.2741L183.274 60.151L175.849 52.7264L138.726 89.8495L146.151 97.2741Z"/>
<path fill-rule="evenodd" clip-rule="evenodd" d="M175.85 97.2737L183.274 89.8491L146.151 52.726L138.727 60.1506L175.85 97.2737Z"/>
<path fill-rule="evenodd" clip-rule="evenodd" d="M49.1507 97.2741L86.2738 60.151L78.8492 52.7264L41.7261 89.8495L49.1507 97.2741Z"/>
<path fill-rule="evenodd" clip-rule="evenodd" d="M78.8497 97.2737L86.2743 89.8491L49.1512 52.726L41.7266 60.1506L78.8497 97.2737Z"/>
<circle cx="112.5" cy="128.5" r="15.5" stroke="#00B8D7" stroke-width="8"/>
</svg>
