<svg viewBox="0 0 24 24" fill="#4C4C4C" xmlns="http://www.w3.org/2000/svg"><path d="M11.935 5c3.412.069 6.241 1.415 8.827 3.397.908.696 1.748 1.496 2.578 2.297.886.857.873 1.726.003 2.604-2.8 2.832-5.945 4.999-9.905 5.582-2.811.414-5.453-.257-7.822-1.759-1.813-1.148-3.446-2.613-5.114-3.997-.624-.518-.66-1.578-.14-2.125C3.202 8.026 6.43 5.755 10.51 5.107c.511-.08 1.034-.078 1.425-.107Zm.042 13.105c3.245.011 5.887-2.746 5.88-6.136-.006-3.33-2.63-6.066-5.84-6.089-3.18-.023-5.854 2.728-5.88 6.05-.024 3.393 2.596 6.163 5.84 6.175Z"/><path d="M12.01 15.989c-2.147.005-3.852-1.75-3.857-3.977C8.147 9.8 9.866 7.988 11.98 7.98c2.118-.008 3.846 1.787 3.857 4.002.013 2.224-1.684 4.001-3.827 4.007Z"/></svg>