<svg width="24" height="24" fill="#4C4C4C" xmlns="http://www.w3.org/2000/svg"><path fill-rule="evenodd" clip-rule="evenodd" d="M1.685 9.437l2.568 8.99L12.43 22.2l7.993-7.993 1.779-5.93L9.296 1.825 1.685 9.437zM9 0L0 9l3 10.5 9.75 4.5 9-9L24 7.5 9 0zm2.438 8.614l-4.126 1.604v1.595h-.4l.524 2.624h.92l.832-.453v-2.546h3.374v1.5h1.876v-.75h.422l-1.247-2.626h-2.175v-.948zm4.667 3.573l-1.293-2.722V6.188h-3.374v1.219L7.311 9.01v-.573H3.938v3.374h1.827l.525 2.626h-.851v3.374h3.375V15.47l1.205-.658h2.544v-.75h1.876v1.5h3.374v-3.374h-1.707zm-3.543-3.75V7.313h1.126v1.125h-1.126zm-7.5 1.126v1.124h1.125V9.563H5.063zm1.5 7.124v-1.125h1.125v1.126H6.563zm3.75-4.125v1.126h1.126v-1.126h-1.126zm5.25 1.876v-1.126h1.126v1.126h-1.125z"/></svg>