<svg viewBox="0 0 24 24" fill="#4C4C4C" xmlns="http://www.w3.org/2000/svg"><path fill-rule="evenodd" clip-rule="evenodd" d="M20.5 4.5a1.5 1.5 0 1 1-3 0 1.5 1.5 0 0 1 3 0Zm1.33 1a3.001 3.001 0 0 1-5.66 0H.75a.75.75 0 0 1 0-1.5h15.291a3 3 0 0 1 5.918 0h1.291a.75.75 0 0 1 0 1.5h-1.42ZM.75 18.5a.75.75 0 0 0 0 1.5h11.42a3.001 3.001 0 0 0 5.66 0h5.42a.75.75 0 0 0 0-1.5h-5.291a3 3 0 0 0-5.918 0H.75Zm0-7.25a.75.75 0 0 0 0 1.5h1.291a3 3 0 0 0 5.918 0H23.25a.75.75 0 0 0 0-1.5H7.83a3.001 3.001 0 0 0-5.66 0H.75ZM5 13.75a1.5 1.5 0 1 0 0-3 1.5 1.5 0 0 0 0 3ZM16.5 19a1.5 1.5 0 1 1-3 0 1.5 1.5 0 0 1 3 0Z"/></svg>