<svg xmlns="http://www.w3.org/2000/svg" fill="#4C4C4C" viewBox="0 0 25 24"><path fill-rule="evenodd" d="M17.48 24h1.496v-7.5H17.48V24ZM23.465 24h1.497v-7.5h-1.497V24Z" clip-rule="evenodd"/><path fill-rule="evenodd" d="M18.727 24h5.296v-1.5h-5.296V24ZM18.727 18h4.948v-1.5h-4.948V18ZM2.458 22.5h1.497V21H2.458v1.5ZM.962 24h4.49v-4.5H.961V24ZM2.458 12.75h1.497v-1.5H2.458v1.5Zm-1.496 1.5h4.49v-4.5H.961v4.5ZM2.458 3h1.497V1.5H2.458V3ZM.962 4.5h4.49V0H.961v4.5ZM21.912 3h1.496V1.5h-1.496V3Zm-1.497 1.5h4.49V0h-4.49v4.5ZM21.912 12.75h1.496v-1.5h-1.496v1.5Zm-1.497 1.5h4.49v-4.5h-4.49v4.5ZM12.434 12.75h1.497v-1.5h-1.497v1.5Zm-1.496 1.5h4.49v-4.5h-4.49v4.5ZM12.185 3h1.496V1.5h-1.496V3Zm-1.496 1.5h4.489V0h-4.49v4.5ZM12.434 22.5h1.497V21h-1.497v1.5ZM10.938 24h4.49v-4.5h-4.49V24Z" clip-rule="evenodd"/><path fill-rule="evenodd" d="M4.703 22.5h7.04V21h-7.04v1.5ZM14.762 12.75h6.402v-1.5h-6.402v1.5ZM12.434 21h1.497v-7.5h-1.497V21ZM21.912 10.336h1.496V3.75h-1.496v6.586ZM14.43 3h6.734V1.5H14.43V3ZM4.703 3h6.734V1.5H4.703V3ZM2.458 10.5h1.497V3.75H2.458v6.75ZM2.458 20.25h1.497V13.5H2.458v6.75Z" clip-rule="evenodd"/></svg>