<svg viewBox="0 0 24 24" fill="#4C4C4C" xmlns="http://www.w3.org/2000/svg"><path d="M16.963 24H8v-1.267c.325-.173.66-.314 1.007-.422.346-.13.725-.249 1.136-.357V10.068L8 9.808V8.54c.325-.13.725-.26 1.202-.39.498-.13 1.017-.238 1.559-.324a22.089 22.089 0 011.59-.26 25.7 25.7 0 011.365-.195h1.104v14.582c.433.108.823.227 1.17.357.346.108.67.25.973.422V24zM9.591 2.436c0-.758.26-1.353.78-1.786.52-.433 1.19-.65 2.013-.65s1.494.217 2.014.65c.52.433.78 1.028.78 1.786 0 .736-.26 1.32-.78 1.753-.52.433-1.191.65-2.014.65-.822 0-1.494-.217-2.013-.65-.52-.433-.78-1.017-.78-1.753z"/></svg>