<svg viewBox="0 0 24 24" fill="#4C4C4C" xmlns="http://www.w3.org/2000/svg">
<path fill-rule="evenodd" clip-rule="evenodd" d="M11.1709 0.858008C11.1709 0.362539 11.5098 0 11.9818 0C12.4538 0 12.8048 0.362539 12.8169 0.845924V3.04533C12.8169 3.28702 12.7201 3.51663 12.5506 3.67373C12.4054 3.81874 12.2118 3.89125 12.006 3.89125H11.9818C11.5098 3.87916 11.1709 3.51663 11.1709 3.03324V1.93354V0.858008ZM4.3812 10.9367C4.3812 11.1663 4.29648 11.3717 4.15124 11.5288C3.99391 11.6859 3.78816 11.7705 3.57031 11.7584C3.14672 11.7705 2.33583 11.7705 1.91224 11.7705H0.83509C0.593035 11.7705 0.387288 11.6859 0.229952 11.5288C0.0726165 11.3717 0 11.1663 0 10.9367C0.0121028 10.4895 0.363083 10.1511 0.847193 10.1511H2.72312H3.534C4.01811 10.1511 4.36909 10.4774 4.3812 10.9367ZM23.1527 10.1389H20.3812C19.8729 10.1389 19.5219 10.4652 19.5098 10.9244C19.5098 11.1541 19.5824 11.3595 19.7398 11.5166C19.8971 11.6737 20.1271 11.7704 20.3691 11.7704H21.5794H23.1527C23.649 11.7704 24.012 11.4199 23.9999 10.9486C24.012 10.4773 23.6611 10.151 23.1527 10.1389ZM18.4563 5.65555C18.2748 5.82474 18.0691 5.92142 17.8391 5.92142C17.6334 5.90933 17.4276 5.82474 17.2703 5.66764C16.9556 5.34135 16.9677 4.8338 17.3066 4.50751C17.6701 4.13653 18.0389 3.77092 18.406 3.4071L18.4062 3.40691C18.589 3.22564 18.7715 3.04483 18.9526 2.86401C19.2067 2.59814 19.5335 2.53772 19.8603 2.68274C20.066 2.76733 20.3202 2.97277 20.3807 3.40781L20.3928 3.52866L20.2839 3.72201C20.2724 3.74198 20.261 3.76397 20.2489 3.78719C20.2099 3.86231 20.1642 3.95027 20.0902 4.02413L18.4563 5.65555ZM6.69252 4.50752C6.1479 3.95163 5.59117 3.39574 5.03444 2.85193C4.86501 2.68274 4.65926 2.59815 4.44141 2.59815H4.42931C4.22356 2.59815 4.01781 2.69483 3.86048 2.85193C3.54581 3.17821 3.55791 3.67368 3.88468 4.01205L4.17515 4.30208L5.53066 5.65556C5.7001 5.82475 5.89374 5.92142 6.11159 5.92142C6.23262 5.92142 6.34154 5.89725 6.46257 5.83683C6.74093 5.71598 6.91037 5.47429 6.95878 5.13592L6.97089 5.01508L6.88617 4.83381C6.87764 4.81677 6.86911 4.79899 6.86031 4.78066C6.81919 4.69492 6.77229 4.59712 6.69252 4.50752ZM3.88461 17.8007C4.42923 17.2448 4.97386 16.701 5.53058 16.1572C5.86946 15.8188 6.35357 15.8188 6.70455 16.1451C6.86189 16.3022 6.94661 16.4956 6.94661 16.7131C6.94661 16.9427 6.84978 17.1602 6.68035 17.3294L5.04647 18.9608C4.87704 19.13 4.67129 19.2146 4.45344 19.2146C4.34451 19.2146 4.22349 19.1904 4.11456 19.1421C3.8483 19.0213 3.66676 18.7675 3.60625 18.4412L3.58204 18.3204L3.67886 18.127C3.6861 18.1125 3.69334 18.0975 3.70079 18.0821C3.74311 17.9944 3.79197 17.8932 3.88461 17.8007ZM20.0784 17.8005C19.5459 17.2567 19.0012 16.7129 18.4566 16.1812C18.1056 15.8308 17.6094 15.8187 17.2706 16.145C16.9438 16.4712 16.9559 16.9909 17.3069 17.3413L18.9165 18.9486C19.086 19.1178 19.2917 19.2144 19.5096 19.2144C19.6185 19.2144 19.7153 19.1903 19.8242 19.154C20.1389 19.0332 20.3083 18.7673 20.3447 18.3685L20.2841 18.1268C20.2478 18.0422 20.1873 17.9093 20.0784 17.8005ZM11.4493 20.1451L13.8094 20.1572C14.2935 20.1572 14.6445 20.4955 14.6808 20.9547C14.6808 21.1723 14.6082 21.3777 14.4508 21.5348C14.2935 21.704 14.0756 21.7886 13.8457 21.7886H12.1876C11.8487 21.7886 11.5099 21.7856 11.171 21.7825C10.8321 21.7795 10.4932 21.7765 10.1544 21.7765C9.69445 21.7765 9.33136 21.414 9.33136 20.9668C9.31926 20.5076 9.69445 20.1451 10.1665 20.1451H11.4493ZM12.7322 22.3566H12.2239H11.2557C10.7836 22.3686 10.4327 22.7312 10.4327 23.1783C10.4327 23.6375 10.7836 23.9759 11.2436 23.988C11.3706 23.988 11.5007 23.991 11.6308 23.994C11.7609 23.997 11.8911 24.0001 12.0181 24.0001H12.7322C12.9621 24.0001 13.1679 23.9034 13.3252 23.7463C13.4826 23.5892 13.5552 23.3838 13.5552 23.1541C13.5431 22.6949 13.1921 22.3686 12.7322 22.3566ZM10.166 4.82178C13.8453 3.68583 17.7302 6.13901 18.3112 9.93358C18.65 12.2055 17.9602 14.139 16.29 15.71C15.5396 16.4109 15.0192 17.2206 14.8014 18.2236C14.644 18.9487 13.9905 19.4442 13.2522 19.4563H11.9935H10.7591C9.99658 19.4563 9.34303 18.9245 9.1857 18.1753C8.99205 17.2085 8.50794 16.423 7.78178 15.7705C5.94216 14.1028 5.21599 12.0121 5.74851 9.59521C6.26893 7.17828 7.79388 5.55894 10.166 4.82178ZM16.4958 11.9034C16.7862 11.9275 17.0404 11.7221 17.0888 11.42C17.0972 11.3282 17.094 11.2364 17.0912 11.1565C17.09 11.1207 17.0888 11.0874 17.0888 11.0574C17.0868 11.0281 17.0849 10.9997 17.083 10.972C17.0731 10.8289 17.0646 10.7057 17.0646 10.5741C17.0404 10.417 17.0162 10.2719 16.9799 10.1148C16.5805 8.38675 15.6002 7.10578 14.051 6.25985C13.7363 6.10275 13.3975 6.18734 13.2522 6.46529C13.0949 6.76741 13.1917 7.08161 13.5064 7.26288C15.1039 8.16922 15.9148 9.53479 15.9753 11.3596C15.9753 11.6617 16.2053 11.8792 16.4958 11.9034Z" />
</svg>
