<svg viewBox="0 0 16 16" fill="#4C4C4C" xmlns="http://www.w3.org/2000/svg">
<path d="M1.39641 8.00023C1.39641 10.9601 3.35412 13.5976 6.21764 14.3595C8.81817 15.0336 11.0389 14.3595 12.9089 12.4254C13.1134 12.2202 13.318 12.1323 13.6102 12.1909C13.8731 12.2495 14.0485 12.4254 14.1069 12.6598C14.1653 12.8943 14.1361 13.1287 13.9608 13.3045C12.792 14.594 11.3603 15.4438 9.66554 15.8248C8.93505 16.0006 8.17534 16.0299 7.41564 15.9713C5.75012 15.8541 4.25993 15.268 2.97427 14.213C1.57173 13.0701 0.636706 11.6048 0.227633 9.84647C-0.298318 7.56064 0.0815355 5.39203 1.42563 3.45787C2.5652 1.78745 4.14305 0.732451 6.07154 0.234256C7.09422 -0.0294934 8.14612 -0.0587989 9.19803 0.0877288C11.0681 0.380784 12.6459 1.25995 13.9024 2.63731C14.1069 2.84245 14.1653 3.1062 14.0485 3.36995C13.9316 3.6337 13.7271 3.78023 13.4349 3.80953C13.2011 3.83884 12.9966 3.72162 12.8505 3.54578C12.4998 3.13551 12.0908 2.78384 11.6232 2.49078C10.396 1.67023 9.05193 1.28926 7.56173 1.37717C4.669 1.58231 2.21456 3.6337 1.54251 6.53495C1.42563 7.03314 1.39641 7.50203 1.39641 8.00023Z"/>
<path d="M13.5825 7.29738C13.4657 7.18016 13.378 7.09224 13.2611 6.97502C12.9689 6.68196 12.6475 6.3596 12.3553 6.06654C12.1508 5.8321 12.0923 5.53904 12.2092 5.27529C12.3261 5.01154 12.5891 4.86502 12.9105 4.89432C13.0858 4.89432 13.2319 5.01154 13.378 5.12877C14.1377 5.89071 14.8682 6.62335 15.6279 7.38529C15.6863 7.44391 15.7448 7.50252 15.8032 7.53182C16.0662 7.79557 16.0662 8.23516 15.8032 8.49891C14.9851 9.31946 14.1669 10.14 13.3488 10.9606C13.0566 11.2536 12.6183 11.2536 12.3553 10.9606C12.0923 10.6968 12.0923 10.2572 12.3845 9.96418C12.7644 9.58321 13.1442 9.20224 13.5533 8.79196C13.5825 8.76266 13.5825 8.76266 13.641 8.70404C13.5825 8.70404 13.5533 8.70404 13.5241 8.70404C11.4787 8.70404 9.40415 8.70404 7.35878 8.70404C6.92049 8.70404 6.6283 8.38168 6.6283 7.9421C6.65752 7.61974 6.92049 7.32668 7.24191 7.32668C7.30034 7.32668 7.32956 7.32668 7.388 7.32668C9.43337 7.32668 11.4495 7.32668 13.4949 7.32668C13.4657 7.32668 13.5241 7.32668 13.5825 7.29738C13.5533 7.29738 13.5533 7.29738 13.5825 7.29738Z"/>
</svg>
