<svg viewBox="0 0 24 24" fill="#4C4C4C" xmlns="http://www.w3.org/2000/svg"><path fill-rule="evenodd" clip-rule="evenodd" d="M0 5.25L5.25 0 24 18.75 18.75 24 0 5.25zm19.784 11.405l-1.19-1.19-.814.815-1.06-1.06.814-.815-1.19-1.19-.814.815-1.06-1.06.814-.815-1.19-1.19-.814.815-1.06-1.06.814-.815-1.19-1.19-.814.815-1.06-1.06.814-.815-1.19-1.19-.814.815-1.06-1.06.814-.815-1.19-1.19-.814.815-1.06-1.06.814-.815L5.25 2.121 2.121 5.25 18.75 21.879l3.129-3.129-1.034-1.034-.815.814-1.06-1.06.814-.815z"/></svg>