<svg viewBox="0 0 24 24" fill="#4C4C4C" xmlns="http://www.w3.org/2000/svg"><path fill-rule="evenodd" clip-rule="evenodd" d="M2 17h5v5a2 2 0 002 2h13a2 2 0 002-2V9a2 2 0 00-2-2h-5V2a2 2 0 00-2-2H2a2 2 0 00-2 2v13a2 2 0 002 2zM15 1.5H2a.5.5 0 00-.5.5v13a.5.5 0 00.5.5h6.5V22a.5.5 0 00.5.5h13a.5.5 0 00.5-.5V9a.5.5 0 00-.5-.5h-6.5V2a.5.5 0 00-.5-.5z"/><path d="M14.5 7H12v1.5h2.5V7zM15.5 9.5V12H17V9.5h-1.5zM15.5 15.5V14H17v2a1 1 0 01-1 1h-2v-1.5h1.5zM12 15.5H9.5V17H12v-1.5zM8 7h2v1.5H8.5V10H7V8a1 1 0 011-1zM8.5 12v2.5H7V12h1.5z"/></svg>