<svg viewBox="0 0 24 24" fill="#4C4C4C" xmlns="http://www.w3.org/2000/svg"><path fill-rule="evenodd" clip-rule="evenodd" d="M18.75 5.25H24V0h-5.25v2.174L13.5 7.676V6.75H8.25v1.558l-.568-.343L5.25 6.5V3.75H0V9h5.25v-.751l3 1.81V12H12l3.46 9.804 2.115-2.115L21.885 24 24 21.886l-4.31-4.311 2.114-2.115L12 12h1.5V9.659l5.25-5.424V5.25zM9.808 9.247l-.058.105V10.5H12V8.25H9.75v.962l.058.035zM20.25 3.75h2.25V1.5h-2.25v2.25zM3.75 7.5H1.5V5.25h2.25V7.5zm17.997 15l-4.275-4.275-1.703 1.703L13.5 13.5l6.428 2.269-1.703 1.703 4.275 4.275-.753.753z"/></svg>