<svg viewBox="0 0 15 24" fill="#4C4C4C" xmlns="http://www.w3.org/2000/svg"><circle cx="7.5" cy="12.5" r="7" fill="none" stroke="#4C4C4C"/><path d="M8.238 9.408a.534.534 0 0 1-.41-.187.648.648 0 0 1-.17-.451c0-.18.057-.332.17-.457a.534.534 0 0 1 .41-.188c.16 0 .297.063.41.188a.644.644 0 0 1 .176.457c0 .18-.058.332-.176.457a.541.541 0 0 1-.41.181Zm.14 1.283c.024.012.034.028.03.047l-1.183 4.184a2.806 2.806 0 0 0-.082.398c0 .059.011.11.035.153.02.046.068.07.146.07.133 0 .309-.115.528-.346.128-.136.287-.332.474-.586l.153.13-.06.081c-.292.41-.534.705-.726.885-.3.281-.593.422-.879.422a.522.522 0 0 1-.421-.211.788.788 0 0 1-.164-.498c0-.113.007-.211.023-.293a5.47 5.47 0 0 1 .088-.375l.82-3.012c.012-.047.022-.09.03-.129a.595.595 0 0 0 .011-.117c0-.14-.053-.226-.158-.258-.102-.035-.305-.052-.61-.052v-.194c.325-.039.557-.068.698-.088l.433-.07c.188-.031.366-.066.534-.105.168-.04.261-.051.28-.036Z" /></svg>
