<svg viewBox="0 0 15 15" fill="#4C4C4C" xmlns="http://www.w3.org/2000/svg"><path fill-rule="evenodd" clip-rule="evenodd" d="M7.5 14a6.5 6.5 0 1 0 0-13 6.5 6.5 0 0 0 0 13Zm0 1a7.5 7.5 0 1 0 0-15 7.5 7.5 0 0 0 0 15Z"/><path d="M8.238 4.408a.534.534 0 0 1-.41-.187.648.648 0 0 1-.17-.451c0-.18.057-.333.17-.458a.534.534 0 0 1 .41-.187c.16 0 .297.063.41.188a.644.644 0 0 1 .176.457c0 .18-.058.332-.176.457a.541.541 0 0 1-.41.181Zm.14 1.283c.024.012.034.028.03.047L7.225 9.922a2.806 2.806 0 0 0-.082.398c0 .059.011.11.035.153.02.046.068.07.146.07.133 0 .309-.115.528-.346.128-.136.287-.332.474-.586l.153.13-.06.081c-.292.41-.534.705-.726.885-.3.281-.593.422-.879.422a.522.522 0 0 1-.421-.211.788.788 0 0 1-.164-.498c0-.113.007-.211.023-.293a5.48 5.48 0 0 1 .088-.375l.82-3.012c.012-.047.022-.09.03-.129a.596.596 0 0 0 .011-.117c0-.14-.053-.226-.158-.258-.102-.035-.305-.052-.61-.052V5.99c.325-.039.557-.068.698-.088l.433-.07c.188-.031.366-.066.534-.105.168-.04.261-.051.28-.036Z"/></svg>