<svg viewBox="0 0 24 24" fill="#4C4C4C" xmlns="http://www.w3.org/2000/svg"><path fill-rule="evenodd" clip-rule="evenodd" d="M16 4h-1V1h-5v14h2v1H4v-1h2V1H1v3H0V0h16v4ZM8.291 1H7v1.292L8.291 1ZM7 3.708v1.583l2-2V1.709l-2 2Zm0 3 2-2v1.583l-2 2V6.708Zm0 3v1.583l2-2V7.708l-2 2Zm0 3 2-2v1.583l-2 2V12.71ZM7.708 15H9v-1.291L7.708 15Z"/><rect x="8" y="8" width="16" height="16" rx="8" fill="#6C7BFF"/><path d="M18.386 12.91h-.403v-.48a.43.43 0 0 0-.86 0v.48h-2.195v-.48a.43.43 0 0 0-.86 0v.48h-.403a.665.665 0 0 0-.665.665v5.76c0 .367.298.665.665.665h4.72a.665.665 0 0 0 .666-.665v-5.76a.665.665 0 0 0-.665-.665Zm-.49 5.098a.844.844 0 0 1-.077.004H14.22a.327.327 0 0 1-.188-.047.282.282 0 0 1-.117-.308c.03-.116.136-.2.256-.207h3.677c.148 0 .258.081.291.216a.278.278 0 0 1-.242.342Zm0-1.317a.844.844 0 0 1-.077.003H14.22a.327.327 0 0 1-.188-.046.282.282 0 0 1-.117-.308c.03-.116.136-.2.256-.207h3.677c.148 0 .258.08.291.216a.278.278 0 0 1-.242.342Zm0-1.318a.844.844 0 0 1-.077.004H14.22a.327.327 0 0 1-.188-.047.281.281 0 0 1 .14-.515h3.676c.148 0 .258.081.291.216a.278.278 0 0 1-.242.342Z" fill="#fff"/></svg>