<svg viewBox="0 0 24 24" fill="#4C4C4C" xmlns="http://www.w3.org/2000/svg">
<path d="M9.21692 15.8623V14.6861C9.21692 13.6689 9.43037 12.7841 9.85727 12.0318C10.2842 11.2795 11.0651 10.4795 12.2 9.63179C13.2933 8.83709 14.0117 8.19073 14.3553 7.69271C14.7093 7.1947 14.8863 6.63841 14.8863 6.02384C14.8863 5.3351 14.6364 4.8106 14.1367 4.45033C13.6369 4.09007 12.9393 3.90993 12.0438 3.90993C10.482 3.90993 8.70152 4.42914 6.70239 5.46755L5 1.98675C7.32191 0.662252 9.78438 0 12.3874 0C14.5323 0 16.2347 0.524503 17.4946 1.57351C18.7649 2.62252 19.4 4.02119 19.4 5.76954C19.4 6.9351 19.1397 7.94172 18.6191 8.7894C18.0985 9.63709 17.1093 10.5907 15.6516 11.6503C14.6521 12.4026 14.0169 12.9748 13.7462 13.3669C13.4859 13.7589 13.3557 14.2728 13.3557 14.9086V15.8623H9.21692ZM8.71714 21.298C8.71714 20.4079 8.95141 19.7351 9.41996 19.2795C9.8885 18.8238 10.5705 18.596 11.4659 18.596C12.3302 18.596 12.9965 18.8291 13.4651 19.2954C13.944 19.7616 14.1835 20.4291 14.1835 21.298C14.1835 22.1351 13.944 22.7973 13.4651 23.2848C12.9861 23.7616 12.3197 24 11.4659 24C10.5913 24 9.91453 23.7669 9.43557 23.3007C8.95662 22.8238 8.71714 22.1563 8.71714 21.298Z" />
</svg>
