<svg viewBox="0 0 24 24" fill="#4C4C4C" xmlns="http://www.w3.org/2000/svg"><path d="M9.217 15.862v-1.176c0-1.017.213-1.902.64-2.654.427-.752 1.208-1.553 2.343-2.4 1.093-.795 1.812-1.441 2.155-1.94a2.813 2.813 0 00.531-1.668c0-.689-.25-1.213-.75-1.574-.5-.36-1.197-.54-2.092-.54-1.562 0-3.342.52-5.342 1.558L5 1.987C7.322.662 9.784 0 12.387 0c2.145 0 3.848.525 5.108 1.574C18.765 2.623 19.4 4.02 19.4 5.77c0 1.165-.26 2.172-.78 3.02-.521.847-1.51 1.8-2.968 2.86-1 .753-1.635 1.325-1.906 1.717-.26.392-.39.906-.39 1.542v.953h-4.14zm-.5 5.436c0-.89.234-1.563.703-2.018.469-.456 1.15-.684 2.046-.684.864 0 1.53.233 2 .7.478.466.718 1.133.718 2.002 0 .837-.24 1.5-.719 1.987-.479.477-1.145.715-2 .715-.874 0-1.55-.233-2.03-.7-.478-.476-.718-1.144-.718-2.002z"/></svg>