<svg viewBox="0 0 13 12" fill="#4C4C4C" xmlns="http://www.w3.org/2000/svg"><path d="M12.978 5.442C12.81 3.243 11.302 1.183 9.321.434l-.168-.06v.178c0 .444.01 1.42.01 1.42v.069l.059.04.118.068a4.5 4.5 0 012.06 4.555A4.482 4.482 0 019.39 9.7c-1.055.67-2.337.877-3.52.552a4.485 4.485 0 01-2.888-2.366 4.406 4.406 0 01-.099-3.648c.128-.305.493-.927.522-.976l1.322 1.321c.049-.236.66-3.273.926-4.584-.098.02-4.022.789-4.604.897L2.331 2.18l-.02.02C.635 4.327.556 7.225 2.094 9.414a5.956 5.956 0 004.89 2.543c.641 0 1.301-.098 1.942-.315 2.12-.71 4.299-2.948 4.052-6.201z"/></svg>