<svg viewBox="0 0 20 26" fill="4C4C4C" xmlns="http://www.w3.org/2000/svg">
<path fill-rule="evenodd" clip-rule="evenodd" d="M2.5 8.5H1.25V7.25H2.5V8.5ZM1.25 9.75H0V6H3.75V9.75H2.5V14.125H3.75V17.875H2.5V22.25H3.75V23.5H8.75V22.25H12.5V23.5H16.25V22.25H17.5V17.875H16.25V14.125H17.5V9.75H16.25V6H20V9.75H18.75V14.125H20V17.875H18.75V22.25H20V26H16.25V24.75H12.5V26H8.75V24.75H3.75V26H0V22.25H1.25V17.875H0V14.125H1.25V9.75ZM1.25 16.625H2.5V15.375H1.25V16.625ZM1.25 24.75H2.5V23.5H1.25V24.75ZM11.25 24.75H10V23.5H11.25V24.75ZM17.5 8.5H18.75V7.25H17.5V8.5ZM18.75 16.625H17.5V15.375H18.75V16.625ZM17.5 24.75H18.75V23.5H17.5V24.75Z"/>
<line x1="16.6857" y1="6.68097" x2="3.68571" y2="0.680969" stroke="#4C4C4C" stroke-width="1.5" stroke-dasharray="2 1"/>
</svg>
