<svg width="24" height="24" viewBox="0 0 24 24" fill="#4C4C4C" xmlns="http://www.w3.org/2000/svg">
<path fill-rule="evenodd" clip-rule="evenodd" d="M3 22.5V21H1.5V22.5H3ZM4.5 21V19.5H3L3 14.25H4.5V9.75H3V4.5H4.5L4.5 0H0V4.5H1.5L1.5 9.75H0V14.25H1.5L1.5 19.5H0V24H4.5V22.5H9.75V24H14.25V22.5H19.5V24H24V19.5H22.5V15H24V10.5H20.507L19.4799 9.46892L18.4172 10.5275L19.5 11.6146V15H21V19.5H19.5V21H14.25V19.5H9.75V21H4.5ZM12.75 21V22.5H11.25V21H12.75ZM22.5 21V22.5H21V21H22.5ZM3 1.5V3H1.5V1.5H3ZM3 12.75V11.25H1.5V12.75H3ZM21 12H22.5V13.5H21V12ZM10.5168 2.59608L12.0969 4.18236L13.1597 3.12378L11.5796 1.5375L10.5168 2.59608ZM13.1503 5.23988L14.7304 6.82616L15.7931 5.76759L14.213 4.1813L13.1503 5.23988ZM15.7837 7.88369L17.3638 9.46997L18.4265 8.4114L16.8465 6.82511L15.7837 7.88369Z" />
</svg>
