<svg viewBox="0 0 24 24" fill="#4C4C4C" xmlns="http://www.w3.org/2000/svg"><path d="M23.688 6.625c-.209-.5-.459-.896-.75-1.188l-4.376-4.375c-.291-.291-.687-.541-1.187-.75C16.875.104 16.417 0 16 0H1.5C1.083 0 .73.146.437.437A1.446 1.446 0 000 1.5v21c0 .417.146.771.437 1.063.292.291.646.437 1.063.437h21c.417 0 .771-.146 1.063-.437.291-.292.437-.646.437-1.063V8c0-.417-.104-.875-.312-1.375zM10 2.5a.48.48 0 01.149-.352A.481.481 0 0110.5 2h3a.48.48 0 01.351.148c.1.1.15.216.15.352v5c0 .135-.05.253-.15.352a.481.481 0 01-.35.148h-3a.48.48 0 01-.352-.148A.48.48 0 0110 7.5v-5zM18 22H6v-6h12v6zm4 0h-2v-6.5c0-.417-.146-.77-.437-1.063A1.447 1.447 0 0018.5 14h-13c-.417 0-.771.146-1.063.437A1.447 1.447 0 004 15.5V22H2V2h2v6.5c0 .417.146.77.437 1.062.292.292.646.438 1.063.438h9c.417 0 .771-.146 1.063-.438.291-.291.437-.645.437-1.062V2c.156 0 .36.052.61.156.25.104.427.208.53.312l4.392 4.391c.104.104.208.284.312.54.105.255.157.455.157.601v14z"/></svg>