<svg viewBox="0 0 24 25" fill="#4C4C4C" xmlns="http://www.w3.org/2000/svg"><path d="M.015 4.251c.048-.08.108-.03.159 0 .399.19.798.37 1.2.57l6.959 3.6.168.078.03-.024c-.724-1.4-1.447-2.8-2.168-4.2-.72-1.404-1.478-2.79-2.144-4.25.062-.013.125-.02.189-.025a4.4 4.4 0 0 1 3.424 1.593c.181.23.335.481.459.747 1.11 2.116 2.217 4.234 3.322 6.354.321.6.63 1.224.954 1.833a.353.353 0 0 0 .177.16 14.723 14.723 0 0 1 4.198 2.585c.12.105.242.204.386.324.051-.14.093-.264.135-.387a3.36 3.36 0 0 1 3.916-2.228c.538.12 1.039.37 1.458.728a3.3 3.3 0 0 1 1.142 2.184c.005.026.012.05.021.075v.615c-.042.207-.075.417-.132.621a3.355 3.355 0 0 1-3.151 2.427 3.625 3.625 0 0 1-2.684-1.122c-.657-.663-1.313-1.329-1.985-1.974a6.076 6.076 0 0 0-1.43-1.062 3.239 3.239 0 0 0-1.479-.32c.045.3.07.6.132.87.165.631.496 1.207.96 1.667.6.633 1.2 1.251 1.82 1.875.219.225.456.435.669.67a3.602 3.602 0 0 1 .548 3.95 3.37 3.37 0 0 1-4.063 1.64 3.366 3.366 0 0 1-1.334-.839 3.249 3.249 0 0 1-.873-3.17 3.21 3.21 0 0 1 2.022-2.302c.188-.078.38-.14.578-.216-.24-.3-.48-.56-.704-.846a14.298 14.298 0 0 1-2.198-3.732.334.334 0 0 0-.162-.17 3187.184 3187.184 0 0 0-7.347-3.838c-.365-.189-.72-.402-1.091-.585A3.299 3.299 0 0 1 .843 6.981a4.357 4.357 0 0 1-.822-2.18A.49.49 0 0 0 0 4.71l.015-.46Zm14.249 14.511a1.868 1.868 0 0 0-1.85 1.851 1.915 1.915 0 0 0 1.847 1.884 1.885 1.885 0 0 0 1.747-2.587 1.85 1.85 0 0 0-1.744-1.148Zm8.24-4.5a1.864 1.864 0 0 0-3.17-1.338 1.863 1.863 0 1 0 3.17 1.338ZM12.477 11.88a.572.572 0 0 0-.567-.6.62.62 0 0 0-.63.531.6.6 0 1 0 1.2.066l-.003.003Z"/></svg>