<svg viewBox="0 0 20 20" fill="#4C4C4C" xmlns="http://www.w3.org/2000/svg">
<path d="M8 0H20V16H8V0Z" fill="white"/>
<path fill-rule="evenodd" clip-rule="evenodd" d="M19 1H9V15H19V1ZM8 0V16H20V0H8Z" fill="#4C4C4C"/>
<path fill-rule="evenodd" clip-rule="evenodd" d="M10.963 0.0135498L19.9708 9.02139L19.2637 9.7285L10.2559 0.720657L10.963 0.0135498ZM19.9908 3.38422L16.6275 0.0209351L15.9204 0.728042L19.2837 4.09132L19.9908 3.38422ZM19.9864 6.20888L13.8009 0.0232844L13.0938 0.730391L19.2793 6.91598L19.9864 6.20888ZM19.9825 11.8613L8.72273 0.601502L8.01562 1.30861L19.2754 12.5684L19.9825 11.8613ZM8.74763 3.45541L19.9761 14.6839L19.269 15.391L8.04053 4.16252L8.74763 3.45541ZM17.7301 15.266L8.74568 6.28162L8.03858 6.98872L17.0229 15.9731L17.7301 15.266ZM8.74373 9.10782L14.9058 15.2699L14.1987 15.977L8.03662 9.81493L8.74373 9.10782ZM12.0797 15.2719L8.74959 11.9419L8.04248 12.649L11.3726 15.9791L12.0797 15.2719Z" fill="#4C4C4C"/>
<path d="M0 4H12V20H0V4Z" fill="white"/>
<path fill-rule="evenodd" clip-rule="evenodd" d="M11 5H1V19H11V5ZM0 4V20H12V4H0Z" fill="#4C4C4C"/>
</svg>
