<svg viewBox="0 0 24 24" fill="#4C4C4C" xmlns="http://www.w3.org/2000/svg"><path fill-rule="evenodd" clip-rule="evenodd" d="M13.839 1.94 1.673 9.736 3.877 20.7l9.477 1.664 8.694-11.547-8.21-8.876ZM24 10.719 14.087 0 0 9.026 2.609 22 14 24l10-13.282Z"/><path fill-rule="evenodd" clip-rule="evenodd" d="M2.5 3.5.25 1.25 1.31.19l2.25 2.25L2.5 3.5Zm3.375 3.375-2.25-2.25 1.06-1.06 2.25 2.25-1.06 1.06ZM9.25 10.25 7 8l1.06-1.06 2.25 2.25-1.06 1.06Zm3.375 3.375-2.25-2.25 1.06-1.06 2.25 2.25-1.06 1.06ZM16 17l-2.25-2.25 1.06-1.06 2.25 2.25L16 17Zm3.375 3.375-2.25-2.25 1.06-1.06 2.25 2.25-1.06 1.06Zm3.375 3.375L20.5 21.5l1.06-1.06 2.25 2.25-1.06 1.06Z"/></svg>
