<svg viewBox="0 0 24 24" fill="none" xmlns="http://www.w3.org/2000/svg"><path d="M.836 9.38 13.963.97l9.061 9.797-9.347 12.415L3.243 21.35.836 9.38Z" stroke="#4C4C4C" stroke-width="1.5"/><path fill-rule="evenodd" clip-rule="evenodd" d="M2.5 3.5.25 1.25 1.31.19l2.25 2.25L2.5 3.5Zm3.375 3.375-2.25-2.25 1.06-1.06 2.25 2.25-1.06 1.06ZM9.25 10.25 7 8l1.06-1.06 2.25 2.25-1.06 1.06Zm3.375 3.375-2.25-2.25 1.06-1.06 2.25 2.25-1.06 1.06ZM16 17l-2.25-2.25 1.06-1.06 2.25 2.25L16 17Zm3.375 3.375-2.25-2.25 1.06-1.06 2.25 2.25-1.06 1.06Zm3.375 3.375L20.5 21.5l1.06-1.06 2.25 2.25-1.06 1.06Z" fill="#4C4C4C"/></svg>