<svg viewBox="0 0 32 32" fill="#4c4c4c" xmlns="http://www.w3.org/2000/svg"><path clip-rule="evenodd" d="M20.513 14.821L22.4 16l2.913-1.821L23.426 13l-2.913 1.821zM16 17.641L13.374 16l-1.887 1.179L16 20l4.513-2.821L18.626 16 16 17.641zM3.774 10L16 2.359 28.226 10l-2.913 1.821L27.2 13l4.8-3L16 0 0 10l4.8 3 1.887-1.179L3.774 10zM11.487 14.821L8.574 13l-1.887 1.179L9.6 16l1.887-1.179zM3.774 16l2.913-1.821L4.8 13 0 16l4.8 3 1.887-1.179L3.774 16z"/><path clip-rule="evenodd" d="M8.574 19l-1.887 1.179L16 26l9.313-5.821L23.426 19 16 23.641 8.574 19zM27.2 13l-1.887 1.179L28.226 16l-2.913 1.821L27.2 19l4.8-3-4.8-3zM8.574 13l-1.887-1.18L4.8 13l1.887 1.179 1.887-1.18zM23.426 13l1.887 1.179 1.887-1.18-1.887-1.178L23.426 13z"/><path clip-rule="evenodd" d="M28.226 22L16 29.641 3.774 22l2.913-1.821L4.8 19 0 22l16 10 16-10-4.8-3-1.887 1.179L28.226 22zM11.487 14.82L9.6 16l1.887 1.179 1.887-1.18-1.887-1.178zM20.513 17.179l1.887-1.18-1.887-1.178L18.626 16l1.887 1.179z"/><path clip-rule="evenodd" d="M8.574 19l-1.887-1.18L4.8 19l1.887 1.179 1.887-1.18zM23.426 19l1.887 1.179 1.887-1.18-1.887-1.178L23.426 19z"/></svg>