<svg fill="#4C4C4C" viewBox="0 0 32 32" xmlns="http://www.w3.org/2000/svg"><path d="M10.686 10.678c.24 0 .35-.07.43-.29 1.261-3.18 2.542-6.36 3.812-9.549.3-.75.99-1.06 1.58-.67.23.15.42.43.53.69 1.281 3.15 2.542 6.31 3.802 9.479.1.26.22.34.5.34 3.172-.01 6.333-.01 9.504-.01.53 0 .91.25 1.08.68.17.44.05.87-.34 1.23-.06.05-.12.1-.17.15a2393.56 2393.56 0 01-7.583 6.62c-.18.15-.22.28-.16.51.97 3.519 1.931 7.038 2.882 10.558.06.23.12.49.08.72-.15.82-1.07 1.12-1.761.58-2.291-1.78-8.053-6.24-8.623-6.71-.2-.17-.32-.13-.51.01-2.822 2.2-5.643 4.39-8.464 6.59-.07.05-.14.11-.21.16-.42.3-.88.31-1.27.04-.38-.26-.54-.7-.41-1.17.59-2.18 2.54-9.35 2.93-10.749.06-.23.03-.37-.16-.54-2.55-2.21-5.092-4.44-7.633-6.66-.04-.04-.08-.07-.12-.11-.38-.36-.5-.8-.32-1.23.17-.419.55-.669 1.06-.669 1.581-.01 7.954-.01 9.544 0z"/></svg>