<svg viewBox="0 0 24 24" fill="#4C4C4C" xmlns="http://www.w3.org/2000/svg"><path fill-rule="evenodd" clip-rule="evenodd" d="M16 4h-1V1h-5v14h2v1H4v-1h2V1H1v3H0V0h16v4ZM8.291 1H7v1.292L8.291 1ZM7 3.708v1.583l2-2V1.709l-2 2Zm0 3 2-2v1.583l-2 2V6.708Zm0 3v1.583l2-2V7.708l-2 2Zm0 3 2-2v1.583l-2 2V12.71ZM7.708 15H9v-1.291L7.708 15Z"/><rect x="8" y="8" width="16" height="16" rx="8" fill="#A140DB"/><path d="m19.82 13.961-.863-.88a.522.522 0 0 0-.373-.162h-1.932v-.39a.53.53 0 0 0-.53-.529h-.946a.53.53 0 0 0-.53.53v.389h-2.093c-.306 0-.553.277-.553.62v1.76c0 .343.248.62.553.62h2.092v3.551c0 .293.238.53.53.53h.946a.53.53 0 0 0 .53-.53v-3.55h1.933a.522.522 0 0 0 .373-.161l.862-.881a.671.671 0 0 0 0-.916Zm-.456.476-.832.85h-5.899v-1.735h5.9l.831.85a.058.058 0 0 1 0 .035Z" fill="#fff"/></svg>