<svg viewBox="0 0 19 26" fill="#4c4c4c" xmlns="http://www.w3.org/2000/svg">
<path fill-rule="evenodd" clip-rule="evenodd" d="M3.06464 23.5086C3.06464 23.5086 3.44031 25.2203 5.37394 25.2203H14.117C16.0506 25.2203 16.4262 23.5086 16.4262 23.5086L18.1523 6.72546H1.33871L3.06464 23.5086ZM13.1082 9.24753C13.1082 8.78319 13.4845 8.40687 13.9489 8.40687C14.4132 8.40687 14.7896 8.78319 14.7896 9.24753L13.9489 21.8577C13.9489 22.322 13.5725 22.6984 13.1082 22.6984C12.644 22.6984 12.2676 22.3219 12.2676 21.8577L13.1082 9.24753ZM8.90483 9.24753C8.90483 8.78319 9.28124 8.40687 9.74549 8.40687C10.2098 8.40687 10.5861 8.78319 10.5861 9.24753V21.8577C10.5861 22.322 10.2098 22.6984 9.74549 22.6984C9.28115 22.6984 8.90483 22.3219 8.90483 21.8577V9.24753ZM5.54209 8.40678C6.00643 8.40678 6.38275 8.7831 6.38275 9.24744L7.22351 21.8576C7.22351 22.3219 6.84709 22.6983 6.38275 22.6983C5.91851 22.6983 5.54209 22.3219 5.54209 21.8576L4.70144 9.24753C4.70144 8.78319 5.07785 8.40678 5.54209 8.40678ZM17.6478 3.36405H13.9489V1.68141C13.9489 0.406004 13.5364 0 12.2676 0H7.22341C6.0596 0 5.54209 0.563727 5.54209 1.68141V3.36414H1.84316C1.09973 3.36414 0.498047 3.92843 0.498047 4.62574C0.498047 5.32314 1.09973 5.88743 1.84316 5.88743H17.6478C18.3912 5.88743 18.9929 5.32314 18.9929 4.62574C18.9929 3.92843 18.3912 3.36405 17.6478 3.36405ZM12.2676 3.36405H7.22351L7.2236 1.68132H12.2676V3.36405H12.2676Z" />
</svg>
