<svg viewBox="0 0 32 32" fill="#4C4C4C" xmlns="http://www.w3.org/2000/svg"><path d="M29.572 10.473c-1.188-5.182-5.47-5.022-5.47-5.022S23.584.467 17.681.029c-5.905-.438-7.255 4.265-7.255 4.265s-4.48-1.635-7.293 3.43c-2.814 5.062 1.784 8.291 1.784 8.291s-1.691 3.709 2.39 5.144c1.62.57 2.892.312 3.85-.22a7.17 7.17 0 001.065.658c.95.459 1.309.397 1.467.876.159.478.318 3.467.237 5.181-.08 1.714-1.031 4.265-1.031 4.265l5.866.081s-1.032-3.549-.952-5.82c.08-2.272.594-2.67 1.349-3.427.755-.757 2.378-1.913 2.378-1.913l-.044-.028c.112.01.228.021.348.028 3.207.191 3.964-3.07 3.964-3.07s5.04-1.75 3.767-7.297zM13.849 21.116c-.353-.055-1.074-.427-1.738-.87.364-.333.647-.682.856-.98.643.88 1.322 1.92.882 1.85zm1.507 0c-.526-.412-.924-1.367-1.302-2.383.372.049.915.03 1.66-.209.192-.061.365-.093.526-.104-.108 1.329-.229 3.21-.884 2.696zm2.655.797c-.991.798-1.228.479-1.15-.119.04-.31.338-1.692.615-2.95.558.407 1.125 1.026 2.102 1.47-.368.445-.96 1.11-1.567 1.6z"/></svg>