<svg viewBox="0 0 22 24" fill="#4C4C4C" xmlns="http://www.w3.org/2000/svg"><path d="M21.179 7.854c-.891-3.886-4.103-3.766-4.103-3.766S16.689.35 12.26.022C7.833-.307 6.82 3.22 6.82 3.22S3.46 1.994 1.35 5.793c-2.11 3.796 1.338 6.219 1.338 6.219s-1.268 2.78 1.793 3.857c1.215.427 2.17.234 2.887-.164.241.177.519.355.8.493.711.344.98.298 1.1.657.119.358.238 2.6.177 3.886-.06 1.285-.773 3.198-.773 3.198l4.4.061s-.774-2.661-.714-4.364c.06-1.705.445-2.003 1.011-2.571.566-.568 1.784-1.435 1.784-1.435l-.034-.02c.085.007.172.015.262.02 2.405.143 2.973-2.303 2.973-2.303s3.78-1.312 2.825-5.473zM9.387 15.837c-.265-.041-.806-.32-1.304-.652.273-.25.486-.512.643-.735.482.66.99 1.44.66 1.387zm1.13 0c-.395-.31-.693-1.025-.977-1.787.28.036.687.022 1.245-.157a1.64 1.64 0 01.395-.078c-.081.997-.171 2.408-.663 2.022zm1.991.598c-.743.598-.92.359-.862-.09.03-.232.253-1.268.461-2.212.419.306.844.77 1.576 1.103-.276.333-.72.832-1.175 1.2z"/></svg>