<svg fill="#4C4C4C" viewBox="0 0 19 19" xmlns="http://www.w3.org/2000/svg"><path d="m17.48 6.444.252-.436a1.257 1.257 0 0 0-1.089-1.885h-.503a1.257 1.257 0 0 1-1.257-1.257v-.503a1.257 1.257 0 0 0-1.885-1.089l-.436.252c-.602.348-1.37.14-1.717-.46L10.593.63a1.259 1.259 0 0 0-2.18-.002l-.251.436a1.257 1.257 0 0 1-1.718.46l-.435-.251A1.258 1.258 0 0 0 4.122 2.36v.504c0 .695-.563 1.257-1.257 1.257h-.503a1.257 1.257 0 0 0-1.089 1.884l.252.436c.348.602.14 1.37-.46 1.717l-.436.252a1.259 1.259 0 0 0 0 2.18l.435.251c.601.347.807 1.116.46 1.717l-.251.435A1.257 1.257 0 0 0 2.36 14.88h.504c.695 0 1.257.563 1.257 1.257v.503a1.257 1.257 0 0 0 1.885 1.088l.436-.252a1.256 1.256 0 0 1 1.717.46l.252.436a1.257 1.257 0 0 0 2.177 0l.251-.435a1.257 1.257 0 0 1 1.717-.46l.436.251a1.257 1.257 0 0 0 1.885-1.088v-.504c0-.694.564-1.257 1.258-1.256h.503a1.257 1.257 0 0 0 1.088-1.885l-.252-.436a1.256 1.256 0 0 1 .46-1.717l.436-.252a1.257 1.257 0 0 0 0-2.177l-.435-.251a1.257 1.257 0 0 1-.46-1.717l.005-.001Z" /><path fill-rule="evenodd" clip-rule="evenodd" d="m9.212 12.084 4.43-4.434a.752.752 0 0 0 0-1.064l-.137-.137a.757.757 0 0 0-1.069 0L8.66 10.226 6.442 8.013a.752.752 0 0 0-1.064 0l-.137.137a.757.757 0 0 0 0 1.068l2.866 2.866a.753.753 0 0 0 .552.22c.2.005.401-.069.553-.22Z" fill="#fff"/></svg>