<svg viewBox="0 0 24 24" fill="#4c4c4c" xmlns="http://www.w3.org/2000/svg"><path fill-rule="evenodd" clip-rule="evenodd" d="M7.5 1.5c-3.308 0-6 2.692-6 6s2.692 6 6 6 6-2.692 6-6-2.692-6-6-6zm0 13.5C3.364 15 0 11.636 0 7.5S3.365 0 7.5 0C11.636 0 15 3.365 15 7.5c0 4.136-3.364 7.5-7.5 7.5z"/><path fill-rule="evenodd" clip-rule="evenodd" d="M13.72 14.78l-2.25-2.25 1.06-1.06 2.25 2.25-1.06 1.06z"/><path fill-rule="evenodd" clip-rule="evenodd" d="M14.56 15.75l5.69 5.69 1.19-1.19-5.69-5.69-1.19 1.19zm5.69 7.81l-7.81-7.81 3.31-3.31 7.81 7.81-3.31 3.31z"/><path fill-rule="evenodd" clip-rule="evenodd" d="M16.28 18.53l-1.06-1.06 2.25-2.25 1.06 1.06-2.25 2.25zM4.5 8.25h6v-1.5h-6v1.5z"/></svg>