<svg viewBox="0 0 24 24" fill="4C4C4C" xmlns="http://www.w3.org/2000/svg"><path fill-rule="evenodd" clip-rule="evenodd" d="M7.64 1.528A6.12 6.12 0 001.528 7.64a6.119 6.119 0 006.112 6.112 6.119 6.119 0 006.112-6.112A6.119 6.119 0 007.64 1.528zm0 13.752C3.427 15.28 0 11.852 0 7.64 0 3.427 3.427 0 7.64 0c4.212 0 7.64 3.427 7.64 7.64 0 4.212-3.428 7.64-7.64 7.64z"/><path fill-rule="evenodd" clip-rule="evenodd" d="M13.976 15.056l-2.292-2.292 1.08-1.08 2.292 2.292-1.08 1.08zM4.584 7.64H3.056A4.589 4.589 0 017.64 3.056v1.528A3.059 3.059 0 004.584 7.64z"/><path fill-rule="evenodd" clip-rule="evenodd" d="M14.832 16.044l5.796 5.795 1.212-1.211-5.796-5.796-1.212 1.212zM20.628 24l-7.956-7.956 3.372-3.373L24 20.628 20.628 24z"/><path fill-rule="evenodd" clip-rule="evenodd" d="M16.584 18.876l-1.08-1.08 2.292-2.293 1.08 1.08-2.292 2.293z"/></svg>