<svg viewBox="0 0 24 24" fill="#4C4C4C" xmlns="http://www.w3.org/2000/svg">
<path id="Fill 427" fill-rule="evenodd" clip-rule="evenodd" d="M7.5 1.5C4.19175 1.5 1.5 4.19175 1.5 7.5C1.5 10.8082 4.19175 13.5 7.5 13.5C10.8082 13.5 13.5 10.8082 13.5 7.5C13.5 4.19175 10.8082 1.5 7.5 1.5ZM7.5 15C3.3645 15 0 11.6355 0 7.5C0 3.3645 3.3645 0 7.5 0C11.6355 0 15 3.3645 15 7.5C15 11.6355 11.6355 15 7.5 15Z" />
<path id="Fill 428" fill-rule="evenodd" clip-rule="evenodd" d="M13.7197 14.7803L11.4697 12.5303L12.5302 11.4698L14.7802 13.7198L13.7197 14.7803Z" />
<path id="Fill 429" fill-rule="evenodd" clip-rule="evenodd" d="M14.5604 15.75L20.2499 21.4395L21.4394 20.25L15.7499 14.5605L14.5604 15.75ZM20.25 23.5605L12.4395 15.75L15.75 12.4395L23.5605 20.25L20.25 23.5605Z" />
<path id="Fill 430" fill-rule="evenodd" clip-rule="evenodd" d="M16.2802 18.5302L15.2197 17.4697L17.4697 15.2197L18.5302 16.2802L16.2802 18.5302Z" />
<path id="Fill 431" fill-rule="evenodd" clip-rule="evenodd" d="M4.5 8.25H10.5V6.75H4.5V8.25Z" />
<path id="Fill 432" fill-rule="evenodd" clip-rule="evenodd" d="M6.75 10.5H8.25V4.5H6.75V10.5Z" />
</svg>
